<svg width="120" height="40" viewBox="0 0 120 40" fill="none" xmlns="http://www.w3.org/2000/svg">
<path d="M44.7136 9.95233C44.5756 9.95233 44.4636 10.0643 44.4636 10.2023V29.7653H36.293V17.6004L46.6106 1.00932L58.413 15.096C58.4605 15.1526 58.5306 15.1854 58.6044 15.1854C58.6783 15.1855 58.7485 15.1529 58.796 15.0963L71.2792 0.25H80.9579V29.7722H72.7873V10.2023C72.7873 10.0643 72.6754 9.95233 72.5373 9.95233H72.3915C72.3181 9.95233 72.2484 9.98462 72.2009 10.0406L58.6529 26.0175L45.0498 10.0403C45.0023 9.98447 44.9327 9.95233 44.8594 9.95233H44.7136ZM18.8061 29.7653L0.449884 0.25H9.61441L22.2519 20.6327C22.2975 20.7062 22.3778 20.7509 22.4642 20.751C22.5507 20.751 22.631 20.7064 22.6767 20.633L35.3559 0.25H44.5207L26.1687 29.7653H18.8061ZM119.75 12.1309V22.3791C119.75 25.1917 119.162 27.0204 118.034 28.0488L118.033 28.0492C116.919 29.069 114.914 29.6002 111.808 29.6002H91.4544C88.3491 29.6002 86.3434 29.069 85.2296 28.0492L85.2286 28.0483C84.094 27.0203 83.5128 25.1925 83.5128 22.3791V7.67754C83.5128 4.88682 84.1001 3.07073 85.2296 2.03497C86.3434 1.01513 88.3491 0.483904 91.4544 0.483904H111.808C112.486 0.483904 113.529 0.499342 114.404 0.514822C114.772 0.521347 115.111 0.527872 115.379 0.533236L108.827 6.82239L91.898 6.86343C91.7602 6.86376 91.6487 6.97559 91.6487 7.11342V22.7506C91.6487 22.8886 91.7606 23.0006 91.8987 23.0006H111.51C111.648 23.0006 111.76 22.8886 111.76 22.7506V18.5953C111.76 18.4573 111.648 18.3453 111.51 18.3453H100.933L104.295 14.276C104.306 14.263 104.316 14.2491 104.323 14.2346L106.087 12.1309H119.75Z" fill="#C6A47E"/>
<path d="M44.7136 9.95233C44.5756 9.95233 44.4636 10.0643 44.4636 10.2023V29.7653H36.293V17.6004L46.6106 1.00932L58.413 15.096C58.4605 15.1526 58.5306 15.1854 58.6044 15.1854C58.6783 15.1855 58.7485 15.1529 58.796 15.0963L71.2792 0.25H80.9579V29.7722H72.7873V10.2023C72.7873 10.0643 72.6754 9.95233 72.5373 9.95233H72.3915C72.3181 9.95233 72.2484 9.98462 72.2009 10.0406L58.6529 26.0175L45.0498 10.0403C45.0023 9.98447 44.9327 9.95233 44.8594 9.95233H44.7136ZM18.8061 29.7653L0.449884 0.25H9.61441L22.2519 20.6327C22.2975 20.7062 22.3778 20.7509 22.4642 20.751C22.5507 20.751 22.631 20.7064 22.6767 20.633L35.3559 0.25H44.5207L26.1687 29.7653H18.8061ZM119.75 12.1309V22.3791C119.75 25.1917 119.162 27.0204 118.034 28.0488L118.033 28.0492C116.919 29.069 114.914 29.6002 111.808 29.6002H91.4544C88.3491 29.6002 86.3434 29.069 85.2296 28.0492L85.2286 28.0483C84.094 27.0203 83.5128 25.1925 83.5128 22.3791V7.67754C83.5128 4.88682 84.1001 3.07073 85.2296 2.03497C86.3434 1.01513 88.3491 0.483904 91.4544 0.483904H111.808C112.486 0.483904 113.529 0.499342 114.404 0.514822C114.772 0.521347 115.111 0.527872 115.379 0.533236L108.827 6.82239L91.898 6.86343C91.7602 6.86376 91.6487 6.97559 91.6487 7.11342V22.7506C91.6487 22.8886 91.7606 23.0006 91.8987 23.0006H111.51C111.648 23.0006 111.76 22.8886 111.76 22.7506V18.5953C111.76 18.4573 111.648 18.3453 111.51 18.3453H100.933L104.295 14.276C104.306 14.263 104.316 14.2491 104.323 14.2346L106.087 12.1309H119.75Z" stroke="url(#paint0_linear_1275_760)" stroke-width="0.5" stroke-linejoin="round"/>
<path d="M44.7136 9.95233C44.5756 9.95233 44.4636 10.0643 44.4636 10.2023V29.7653H36.293V17.6004L46.6106 1.00932L58.413 15.096C58.4605 15.1526 58.5306 15.1854 58.6044 15.1854C58.6783 15.1855 58.7485 15.1529 58.796 15.0963L71.2792 0.25H80.9579V29.7722H72.7873V10.2023C72.7873 10.0643 72.6754 9.95233 72.5373 9.95233H72.3915C72.3181 9.95233 72.2484 9.98462 72.2009 10.0406L58.6529 26.0175L45.0498 10.0403C45.0023 9.98447 44.9327 9.95233 44.8594 9.95233H44.7136ZM18.8061 29.7653L0.449884 0.25H9.61441L22.2519 20.6327C22.2975 20.7062 22.3778 20.7509 22.4642 20.751C22.5507 20.751 22.631 20.7064 22.6767 20.633L35.3559 0.25H44.5207L26.1687 29.7653H18.8061ZM119.75 12.1309V22.3791C119.75 25.1917 119.162 27.0204 118.034 28.0488L118.033 28.0492C116.919 29.069 114.914 29.6002 111.808 29.6002H91.4544C88.3491 29.6002 86.3434 29.069 85.2296 28.0492L85.2286 28.0483C84.094 27.0203 83.5128 25.1925 83.5128 22.3791V7.67754C83.5128 4.88682 84.1001 3.07073 85.2296 2.03497C86.3434 1.01513 88.3491 0.483904 91.4544 0.483904H111.808C112.486 0.483904 113.529 0.499342 114.404 0.514822C114.772 0.521347 115.111 0.527872 115.379 0.533236L108.827 6.82239L91.898 6.86343C91.7602 6.86376 91.6487 6.97559 91.6487 7.11342V22.7506C91.6487 22.8886 91.7606 23.0006 91.8987 23.0006H111.51C111.648 23.0006 111.76 22.8886 111.76 22.7506V18.5953C111.76 18.4573 111.648 18.3453 111.51 18.3453H100.933L104.295 14.276C104.306 14.263 104.316 14.2491 104.323 14.2346L106.087 12.1309H119.75Z" stroke="#C57F19" stroke-opacity="0.4" stroke-width="0.5" stroke-linejoin="round"/>
<mask id="path-2-inside-1_1275_760" fill="white">
<path d="M61.3745 33.6401H56.7858V38.9098H61.3745C62.3117 38.9098 62.9295 38.7241 63.228 38.3595C63.4988 38.0224 63.6376 37.3275 63.6376 36.2887C63.6376 35.2499 63.4988 34.5413 63.2211 34.2042C62.9226 33.8328 62.3047 33.647 61.3745 33.647V33.6401ZM61.8119 37.2794C61.6869 37.4583 61.4509 37.5477 61.0968 37.5477H58.4241V35.0092H61.0968C61.4509 35.0092 61.6869 35.0986 61.8119 35.2843C61.9368 35.4632 61.9993 35.8003 61.9993 36.2887C61.9993 36.7772 61.9368 37.1074 61.8119 37.2863V37.2794ZM64.9635 38.9236H66.6019V33.6539H64.9635V38.9236ZM31.4543 35.3738C31.3641 35.4838 31.3085 35.6283 31.2808 35.8003C31.26 35.9792 31.2391 36.0686 31.2252 36.0686C31.2044 35.9654 31.1836 35.8485 31.1628 35.7109C31.135 35.5802 31.0795 35.4632 31.0031 35.3738L29.6355 33.647H27.3932L30.3853 37.0936V38.9167H32.0236V37.0936L35.0572 33.647H32.815L31.4474 35.3738H31.4543ZM23.3044 37.5271H23.1586L21.1454 33.647H19.2988L21.9854 38.9167H24.4706L27.1572 33.647H25.3106L23.2974 37.5271H23.3044ZM49.7813 38.9167H55.5154V37.6371H51.4196V36.9148H55.328V35.6421H51.4196V34.9128H55.5154V33.6332H49.7813V38.9098V38.9167ZM44.1999 36.6121C44.1721 36.8047 44.1444 36.9561 44.1305 37.073C44.1097 37.19 44.0888 37.2519 44.068 37.2519C44.0472 37.2519 44.0194 37.1556 43.9986 36.9561C43.9708 36.7634 43.9569 36.6534 43.9361 36.619L42.5338 33.6608H39.5904V38.9305H41.2287V35.2362C41.2287 35.1949 41.2218 35.133 41.2079 35.0642C41.1732 34.906 41.1593 34.8234 41.1593 34.8234C41.1593 34.789 41.1732 34.7684 41.2009 34.7684C41.2218 34.7684 41.2426 34.7959 41.2704 34.844C41.2981 34.8922 41.3259 34.9472 41.3537 35.016L43.3946 38.9305H44.7344L46.6227 35.0298C46.6435 34.9816 46.6643 34.9266 46.699 34.8647C46.7268 34.8096 46.7546 34.7821 46.7754 34.7821C46.8032 34.7821 46.824 34.8028 46.824 34.844C46.824 34.8647 46.8101 34.9197 46.7893 35.016C46.7685 35.1123 46.7546 35.188 46.7546 35.2499V38.9305H48.3929V33.6608H45.6022L44.1999 36.619V36.6121ZM110.052 36.8529C110.052 37.1693 109.948 37.3757 109.747 37.472C109.545 37.5752 109.059 37.6302 108.303 37.6302C107.546 37.6302 107.039 37.5752 106.831 37.4651C106.65 37.3757 106.56 37.1762 106.56 36.8529V33.6401H104.922V36.8529C104.922 37.8022 105.13 38.4008 105.554 38.6553C105.935 38.8823 106.852 38.9924 108.303 38.9924C109.754 38.9924 110.677 38.8823 111.059 38.6553C111.482 38.4076 111.69 37.8091 111.69 36.8529V33.6401H110.052V36.8529ZM118.702 33.9566C118.424 33.7433 117.848 33.6401 116.973 33.6401H112.968V38.9167H114.606V37.6234H116.973C117.848 37.6234 118.424 37.5133 118.709 37.3C119.049 37.0386 119.222 36.4814 119.222 35.6352C119.222 34.789 119.049 34.2249 118.702 33.9566ZM117.411 36.1374C117.313 36.2199 117.168 36.2612 116.973 36.2612H114.606V35.0092H116.973C117.168 35.0092 117.32 35.0504 117.411 35.1261C117.529 35.2224 117.591 35.3944 117.591 35.6352C117.591 35.876 117.529 36.0342 117.411 36.1374ZM100.139 33.5713C98.445 33.5713 97.4245 33.7089 97.0843 33.9841C96.7789 34.2318 96.6262 35.0023 96.6262 36.2887C96.6262 37.2244 96.6747 37.8366 96.7719 38.1256C96.9038 38.5039 97.2093 38.7516 97.6952 38.8617C98.084 38.9511 98.8962 38.9924 100.139 38.9924C101.84 38.9924 102.853 38.8548 103.193 38.5865C103.506 38.3388 103.665 37.5683 103.665 36.2819C103.665 34.9954 103.506 34.2318 103.186 33.9703C102.846 33.702 101.833 33.5645 100.139 33.5645V33.5713ZM101.791 37.4583C101.631 37.5683 101.083 37.6302 100.139 37.6302C99.1947 37.6302 98.6532 37.5752 98.5005 37.4583C98.3408 37.3482 98.2645 36.9629 98.2645 36.2887C98.2645 35.6145 98.3408 35.2155 98.5005 35.0986C98.6532 34.9885 99.2016 34.9335 100.146 34.9335C101.09 34.9335 101.638 34.9885 101.791 35.0986C101.944 35.2087 102.02 35.6077 102.02 36.2887C102.02 36.9698 101.944 37.3551 101.791 37.4583ZM69.8924 33.6539L67.2544 38.9236H69.1704L69.6772 38.0499H72.926L73.4328 38.9236H75.3419L72.7039 33.6539H69.8924ZM70.2881 36.6809L71.1767 34.844H71.4266L72.3151 36.6809H70.2881ZM94.7935 36.1855C94.9045 35.9654 94.9601 35.6283 94.9601 35.1811C94.9601 34.6033 94.8282 34.1974 94.5644 33.9635C94.3214 33.7502 93.9049 33.647 93.3217 33.647H88.5595V38.9236H90.1978V37.4514H92.7872C92.9746 37.4514 93.1065 37.5133 93.2037 37.6302C93.287 37.7266 93.3217 37.8504 93.3217 37.988V38.9305H94.9601V37.7541C94.9601 37.4376 94.9115 37.2106 94.8212 37.073C94.724 36.9423 94.5227 36.8116 94.2242 36.6809C94.4949 36.5777 94.6824 36.4126 94.8004 36.1924L94.7935 36.1855ZM93.2037 35.9654C93.1274 36.0411 92.9955 36.0824 92.815 36.0824H90.1909V35.016H92.815C92.9885 35.016 93.1135 35.0573 93.1968 35.133C93.2801 35.2087 93.3148 35.3531 93.3148 35.5526C93.3148 35.7521 93.2801 35.8897 93.2037 35.9654ZM83.714 34.9404C84.6234 34.9404 85.151 34.9679 85.3106 35.016C85.4634 35.0711 85.5397 35.2499 85.5397 35.5595H87.178C87.178 34.6239 86.9906 34.0529 86.6227 33.8465C86.2895 33.6608 85.3245 33.5713 83.7279 33.5713C82.1312 33.5713 81.0621 33.7089 80.7289 33.9772C80.4165 34.2318 80.2568 35.0023 80.2568 36.2887C80.2568 37.5752 80.4165 38.3457 80.7428 38.6071C81.0621 38.8754 82.0618 39.0062 83.7279 39.0062C84.9982 39.0062 85.8105 38.9649 86.1645 38.8892C86.6435 38.7791 86.9351 38.5108 87.06 38.0843C87.1433 37.7816 87.185 37.0524 87.185 35.9104H83.5265V37.0868H85.5536C85.5536 37.3688 85.4772 37.5271 85.3315 37.5752C85.1857 37.6165 84.6511 37.644 83.7348 37.644C82.8184 37.644 82.2839 37.589 82.1381 37.472C81.9854 37.3619 81.909 36.9698 81.909 36.3025C81.909 35.6352 81.9854 35.2293 82.1381 35.1123C82.2909 35.0023 82.8254 34.9404 83.7279 34.9404H83.714Z"/>
</mask>
<path d="M61.3745 33.6401H56.7858V38.9098H61.3745C62.3117 38.9098 62.9295 38.7241 63.228 38.3595C63.4988 38.0224 63.6376 37.3275 63.6376 36.2887C63.6376 35.2499 63.4988 34.5413 63.2211 34.2042C62.9226 33.8328 62.3047 33.647 61.3745 33.647V33.6401ZM61.8119 37.2794C61.6869 37.4583 61.4509 37.5477 61.0968 37.5477H58.4241V35.0092H61.0968C61.4509 35.0092 61.6869 35.0986 61.8119 35.2843C61.9368 35.4632 61.9993 35.8003 61.9993 36.2887C61.9993 36.7772 61.9368 37.1074 61.8119 37.2863V37.2794ZM64.9635 38.9236H66.6019V33.6539H64.9635V38.9236ZM31.4543 35.3738C31.3641 35.4838 31.3085 35.6283 31.2808 35.8003C31.26 35.9792 31.2391 36.0686 31.2252 36.0686C31.2044 35.9654 31.1836 35.8485 31.1628 35.7109C31.135 35.5802 31.0795 35.4632 31.0031 35.3738L29.6355 33.647H27.3932L30.3853 37.0936V38.9167H32.0236V37.0936L35.0572 33.647H32.815L31.4474 35.3738H31.4543ZM23.3044 37.5271H23.1586L21.1454 33.647H19.2988L21.9854 38.9167H24.4706L27.1572 33.647H25.3106L23.2974 37.5271H23.3044ZM49.7813 38.9167H55.5154V37.6371H51.4196V36.9148H55.328V35.6421H51.4196V34.9128H55.5154V33.6332H49.7813V38.9098V38.9167ZM44.1999 36.6121C44.1721 36.8047 44.1444 36.9561 44.1305 37.073C44.1097 37.19 44.0888 37.2519 44.068 37.2519C44.0472 37.2519 44.0194 37.1556 43.9986 36.9561C43.9708 36.7634 43.9569 36.6534 43.9361 36.619L42.5338 33.6608H39.5904V38.9305H41.2287V35.2362C41.2287 35.1949 41.2218 35.133 41.2079 35.0642C41.1732 34.906 41.1593 34.8234 41.1593 34.8234C41.1593 34.789 41.1732 34.7684 41.2009 34.7684C41.2218 34.7684 41.2426 34.7959 41.2704 34.844C41.2981 34.8922 41.3259 34.9472 41.3537 35.016L43.3946 38.9305H44.7344L46.6227 35.0298C46.6435 34.9816 46.6643 34.9266 46.699 34.8647C46.7268 34.8096 46.7546 34.7821 46.7754 34.7821C46.8032 34.7821 46.824 34.8028 46.824 34.844C46.824 34.8647 46.8101 34.9197 46.7893 35.016C46.7685 35.1123 46.7546 35.188 46.7546 35.2499V38.9305H48.3929V33.6608H45.6022L44.1999 36.619V36.6121ZM110.052 36.8529C110.052 37.1693 109.948 37.3757 109.747 37.472C109.545 37.5752 109.059 37.6302 108.303 37.6302C107.546 37.6302 107.039 37.5752 106.831 37.4651C106.65 37.3757 106.56 37.1762 106.56 36.8529V33.6401H104.922V36.8529C104.922 37.8022 105.13 38.4008 105.554 38.6553C105.935 38.8823 106.852 38.9924 108.303 38.9924C109.754 38.9924 110.677 38.8823 111.059 38.6553C111.482 38.4076 111.69 37.8091 111.69 36.8529V33.6401H110.052V36.8529ZM118.702 33.9566C118.424 33.7433 117.848 33.6401 116.973 33.6401H112.968V38.9167H114.606V37.6234H116.973C117.848 37.6234 118.424 37.5133 118.709 37.3C119.049 37.0386 119.222 36.4814 119.222 35.6352C119.222 34.789 119.049 34.2249 118.702 33.9566ZM117.411 36.1374C117.313 36.2199 117.168 36.2612 116.973 36.2612H114.606V35.0092H116.973C117.168 35.0092 117.32 35.0504 117.411 35.1261C117.529 35.2224 117.591 35.3944 117.591 35.6352C117.591 35.876 117.529 36.0342 117.411 36.1374ZM100.139 33.5713C98.445 33.5713 97.4245 33.7089 97.0843 33.9841C96.7789 34.2318 96.6262 35.0023 96.6262 36.2887C96.6262 37.2244 96.6747 37.8366 96.7719 38.1256C96.9038 38.5039 97.2093 38.7516 97.6952 38.8617C98.084 38.9511 98.8962 38.9924 100.139 38.9924C101.84 38.9924 102.853 38.8548 103.193 38.5865C103.506 38.3388 103.665 37.5683 103.665 36.2819C103.665 34.9954 103.506 34.2318 103.186 33.9703C102.846 33.702 101.833 33.5645 100.139 33.5645V33.5713ZM101.791 37.4583C101.631 37.5683 101.083 37.6302 100.139 37.6302C99.1947 37.6302 98.6532 37.5752 98.5005 37.4583C98.3408 37.3482 98.2645 36.9629 98.2645 36.2887C98.2645 35.6145 98.3408 35.2155 98.5005 35.0986C98.6532 34.9885 99.2016 34.9335 100.146 34.9335C101.09 34.9335 101.638 34.9885 101.791 35.0986C101.944 35.2087 102.02 35.6077 102.02 36.2887C102.02 36.9698 101.944 37.3551 101.791 37.4583ZM69.8924 33.6539L67.2544 38.9236H69.1704L69.6772 38.0499H72.926L73.4328 38.9236H75.3419L72.7039 33.6539H69.8924ZM70.2881 36.6809L71.1767 34.844H71.4266L72.3151 36.6809H70.2881ZM94.7935 36.1855C94.9045 35.9654 94.9601 35.6283 94.9601 35.1811C94.9601 34.6033 94.8282 34.1974 94.5644 33.9635C94.3214 33.7502 93.9049 33.647 93.3217 33.647H88.5595V38.9236H90.1978V37.4514H92.7872C92.9746 37.4514 93.1065 37.5133 93.2037 37.6302C93.287 37.7266 93.3217 37.8504 93.3217 37.988V38.9305H94.9601V37.7541C94.9601 37.4376 94.9115 37.2106 94.8212 37.073C94.724 36.9423 94.5227 36.8116 94.2242 36.6809C94.4949 36.5777 94.6824 36.4126 94.8004 36.1924L94.7935 36.1855ZM93.2037 35.9654C93.1274 36.0411 92.9955 36.0824 92.815 36.0824H90.1909V35.016H92.815C92.9885 35.016 93.1135 35.0573 93.1968 35.133C93.2801 35.2087 93.3148 35.3531 93.3148 35.5526C93.3148 35.7521 93.2801 35.8897 93.2037 35.9654ZM83.714 34.9404C84.6234 34.9404 85.151 34.9679 85.3106 35.016C85.4634 35.0711 85.5397 35.2499 85.5397 35.5595H87.178C87.178 34.6239 86.9906 34.0529 86.6227 33.8465C86.2895 33.6608 85.3245 33.5713 83.7279 33.5713C82.1312 33.5713 81.0621 33.7089 80.7289 33.9772C80.4165 34.2318 80.2568 35.0023 80.2568 36.2887C80.2568 37.5752 80.4165 38.3457 80.7428 38.6071C81.0621 38.8754 82.0618 39.0062 83.7279 39.0062C84.9982 39.0062 85.8105 38.9649 86.1645 38.8892C86.6435 38.7791 86.9351 38.5108 87.06 38.0843C87.1433 37.7816 87.185 37.0524 87.185 35.9104H83.5265V37.0868H85.5536C85.5536 37.3688 85.4772 37.5271 85.3315 37.5752C85.1857 37.6165 84.6511 37.644 83.7348 37.644C82.8184 37.644 82.2839 37.589 82.1381 37.472C81.9854 37.3619 81.909 36.9698 81.909 36.3025C81.909 35.6352 81.9854 35.2293 82.1381 35.1123C82.2909 35.0023 82.8254 34.9404 83.7279 34.9404H83.714Z" fill="#C6A47E"/>
<path d="M61.3745 33.6401H56.7858V38.9098H61.3745C62.3117 38.9098 62.9295 38.7241 63.228 38.3595C63.4988 38.0224 63.6376 37.3275 63.6376 36.2887C63.6376 35.2499 63.4988 34.5413 63.2211 34.2042C62.9226 33.8328 62.3047 33.647 61.3745 33.647V33.6401ZM61.8119 37.2794C61.6869 37.4583 61.4509 37.5477 61.0968 37.5477H58.4241V35.0092H61.0968C61.4509 35.0092 61.6869 35.0986 61.8119 35.2843C61.9368 35.4632 61.9993 35.8003 61.9993 36.2887C61.9993 36.7772 61.9368 37.1074 61.8119 37.2863V37.2794ZM64.9635 38.9236H66.6019V33.6539H64.9635V38.9236ZM31.4543 35.3738C31.3641 35.4838 31.3085 35.6283 31.2808 35.8003C31.26 35.9792 31.2391 36.0686 31.2252 36.0686C31.2044 35.9654 31.1836 35.8485 31.1628 35.7109C31.135 35.5802 31.0795 35.4632 31.0031 35.3738L29.6355 33.647H27.3932L30.3853 37.0936V38.9167H32.0236V37.0936L35.0572 33.647H32.815L31.4474 35.3738H31.4543ZM23.3044 37.5271H23.1586L21.1454 33.647H19.2988L21.9854 38.9167H24.4706L27.1572 33.647H25.3106L23.2974 37.5271H23.3044ZM49.7813 38.9167H55.5154V37.6371H51.4196V36.9148H55.328V35.6421H51.4196V34.9128H55.5154V33.6332H49.7813V38.9098V38.9167ZM44.1999 36.6121C44.1721 36.8047 44.1444 36.9561 44.1305 37.073C44.1097 37.19 44.0888 37.2519 44.068 37.2519C44.0472 37.2519 44.0194 37.1556 43.9986 36.9561C43.9708 36.7634 43.9569 36.6534 43.9361 36.619L42.5338 33.6608H39.5904V38.9305H41.2287V35.2362C41.2287 35.1949 41.2218 35.133 41.2079 35.0642C41.1732 34.906 41.1593 34.8234 41.1593 34.8234C41.1593 34.789 41.1732 34.7684 41.2009 34.7684C41.2218 34.7684 41.2426 34.7959 41.2704 34.844C41.2981 34.8922 41.3259 34.9472 41.3537 35.016L43.3946 38.9305H44.7344L46.6227 35.0298C46.6435 34.9816 46.6643 34.9266 46.699 34.8647C46.7268 34.8096 46.7546 34.7821 46.7754 34.7821C46.8032 34.7821 46.824 34.8028 46.824 34.844C46.824 34.8647 46.8101 34.9197 46.7893 35.016C46.7685 35.1123 46.7546 35.188 46.7546 35.2499V38.9305H48.3929V33.6608H45.6022L44.1999 36.619V36.6121ZM110.052 36.8529C110.052 37.1693 109.948 37.3757 109.747 37.472C109.545 37.5752 109.059 37.6302 108.303 37.6302C107.546 37.6302 107.039 37.5752 106.831 37.4651C106.65 37.3757 106.56 37.1762 106.56 36.8529V33.6401H104.922V36.8529C104.922 37.8022 105.13 38.4008 105.554 38.6553C105.935 38.8823 106.852 38.9924 108.303 38.9924C109.754 38.9924 110.677 38.8823 111.059 38.6553C111.482 38.4076 111.69 37.8091 111.69 36.8529V33.6401H110.052V36.8529ZM118.702 33.9566C118.424 33.7433 117.848 33.6401 116.973 33.6401H112.968V38.9167H114.606V37.6234H116.973C117.848 37.6234 118.424 37.5133 118.709 37.3C119.049 37.0386 119.222 36.4814 119.222 35.6352C119.222 34.789 119.049 34.2249 118.702 33.9566ZM117.411 36.1374C117.313 36.2199 117.168 36.2612 116.973 36.2612H114.606V35.0092H116.973C117.168 35.0092 117.32 35.0504 117.411 35.1261C117.529 35.2224 117.591 35.3944 117.591 35.6352C117.591 35.876 117.529 36.0342 117.411 36.1374ZM100.139 33.5713C98.445 33.5713 97.4245 33.7089 97.0843 33.9841C96.7789 34.2318 96.6262 35.0023 96.6262 36.2887C96.6262 37.2244 96.6747 37.8366 96.7719 38.1256C96.9038 38.5039 97.2093 38.7516 97.6952 38.8617C98.084 38.9511 98.8962 38.9924 100.139 38.9924C101.84 38.9924 102.853 38.8548 103.193 38.5865C103.506 38.3388 103.665 37.5683 103.665 36.2819C103.665 34.9954 103.506 34.2318 103.186 33.9703C102.846 33.702 101.833 33.5645 100.139 33.5645V33.5713ZM101.791 37.4583C101.631 37.5683 101.083 37.6302 100.139 37.6302C99.1947 37.6302 98.6532 37.5752 98.5005 37.4583C98.3408 37.3482 98.2645 36.9629 98.2645 36.2887C98.2645 35.6145 98.3408 35.2155 98.5005 35.0986C98.6532 34.9885 99.2016 34.9335 100.146 34.9335C101.09 34.9335 101.638 34.9885 101.791 35.0986C101.944 35.2087 102.02 35.6077 102.02 36.2887C102.02 36.9698 101.944 37.3551 101.791 37.4583ZM69.8924 33.6539L67.2544 38.9236H69.1704L69.6772 38.0499H72.926L73.4328 38.9236H75.3419L72.7039 33.6539H69.8924ZM70.2881 36.6809L71.1767 34.844H71.4266L72.3151 36.6809H70.2881ZM94.7935 36.1855C94.9045 35.9654 94.9601 35.6283 94.9601 35.1811C94.9601 34.6033 94.8282 34.1974 94.5644 33.9635C94.3214 33.7502 93.9049 33.647 93.3217 33.647H88.5595V38.9236H90.1978V37.4514H92.7872C92.9746 37.4514 93.1065 37.5133 93.2037 37.6302C93.287 37.7266 93.3217 37.8504 93.3217 37.988V38.9305H94.9601V37.7541C94.9601 37.4376 94.9115 37.2106 94.8212 37.073C94.724 36.9423 94.5227 36.8116 94.2242 36.6809C94.4949 36.5777 94.6824 36.4126 94.8004 36.1924L94.7935 36.1855ZM93.2037 35.9654C93.1274 36.0411 92.9955 36.0824 92.815 36.0824H90.1909V35.016H92.815C92.9885 35.016 93.1135 35.0573 93.1968 35.133C93.2801 35.2087 93.3148 35.3531 93.3148 35.5526C93.3148 35.7521 93.2801 35.8897 93.2037 35.9654ZM83.714 34.9404C84.6234 34.9404 85.151 34.9679 85.3106 35.016C85.4634 35.0711 85.5397 35.2499 85.5397 35.5595H87.178C87.178 34.6239 86.9906 34.0529 86.6227 33.8465C86.2895 33.6608 85.3245 33.5713 83.7279 33.5713C82.1312 33.5713 81.0621 33.7089 80.7289 33.9772C80.4165 34.2318 80.2568 35.0023 80.2568 36.2887C80.2568 37.5752 80.4165 38.3457 80.7428 38.6071C81.0621 38.8754 82.0618 39.0062 83.7279 39.0062C84.9982 39.0062 85.8105 38.9649 86.1645 38.8892C86.6435 38.7791 86.9351 38.5108 87.06 38.0843C87.1433 37.7816 87.185 37.0524 87.185 35.9104H83.5265V37.0868H85.5536C85.5536 37.3688 85.4772 37.5271 85.3315 37.5752C85.1857 37.6165 84.6511 37.644 83.7348 37.644C82.8184 37.644 82.2839 37.589 82.1381 37.472C81.9854 37.3619 81.909 36.9698 81.909 36.3025C81.909 35.6352 81.9854 35.2293 82.1381 35.1123C82.2909 35.0023 82.8254 34.9404 83.7279 34.9404H83.714Z" stroke="url(#paint1_linear_1275_760)" stroke-width="0.2" stroke-linejoin="round" mask="url(#path-2-inside-1_1275_760)"/>
<path d="M61.3745 33.6401H56.7858V38.9098H61.3745C62.3117 38.9098 62.9295 38.7241 63.228 38.3595C63.4988 38.0224 63.6376 37.3275 63.6376 36.2887C63.6376 35.2499 63.4988 34.5413 63.2211 34.2042C62.9226 33.8328 62.3047 33.647 61.3745 33.647V33.6401ZM61.8119 37.2794C61.6869 37.4583 61.4509 37.5477 61.0968 37.5477H58.4241V35.0092H61.0968C61.4509 35.0092 61.6869 35.0986 61.8119 35.2843C61.9368 35.4632 61.9993 35.8003 61.9993 36.2887C61.9993 36.7772 61.9368 37.1074 61.8119 37.2863V37.2794ZM64.9635 38.9236H66.6019V33.6539H64.9635V38.9236ZM31.4543 35.3738C31.3641 35.4838 31.3085 35.6283 31.2808 35.8003C31.26 35.9792 31.2391 36.0686 31.2252 36.0686C31.2044 35.9654 31.1836 35.8485 31.1628 35.7109C31.135 35.5802 31.0795 35.4632 31.0031 35.3738L29.6355 33.647H27.3932L30.3853 37.0936V38.9167H32.0236V37.0936L35.0572 33.647H32.815L31.4474 35.3738H31.4543ZM23.3044 37.5271H23.1586L21.1454 33.647H19.2988L21.9854 38.9167H24.4706L27.1572 33.647H25.3106L23.2974 37.5271H23.3044ZM49.7813 38.9167H55.5154V37.6371H51.4196V36.9148H55.328V35.6421H51.4196V34.9128H55.5154V33.6332H49.7813V38.9098V38.9167ZM44.1999 36.6121C44.1721 36.8047 44.1444 36.9561 44.1305 37.073C44.1097 37.19 44.0888 37.2519 44.068 37.2519C44.0472 37.2519 44.0194 37.1556 43.9986 36.9561C43.9708 36.7634 43.9569 36.6534 43.9361 36.619L42.5338 33.6608H39.5904V38.9305H41.2287V35.2362C41.2287 35.1949 41.2218 35.133 41.2079 35.0642C41.1732 34.906 41.1593 34.8234 41.1593 34.8234C41.1593 34.789 41.1732 34.7684 41.2009 34.7684C41.2218 34.7684 41.2426 34.7959 41.2704 34.844C41.2981 34.8922 41.3259 34.9472 41.3537 35.016L43.3946 38.9305H44.7344L46.6227 35.0298C46.6435 34.9816 46.6643 34.9266 46.699 34.8647C46.7268 34.8096 46.7546 34.7821 46.7754 34.7821C46.8032 34.7821 46.824 34.8028 46.824 34.844C46.824 34.8647 46.8101 34.9197 46.7893 35.016C46.7685 35.1123 46.7546 35.188 46.7546 35.2499V38.9305H48.3929V33.6608H45.6022L44.1999 36.619V36.6121ZM110.052 36.8529C110.052 37.1693 109.948 37.3757 109.747 37.472C109.545 37.5752 109.059 37.6302 108.303 37.6302C107.546 37.6302 107.039 37.5752 106.831 37.4651C106.65 37.3757 106.56 37.1762 106.56 36.8529V33.6401H104.922V36.8529C104.922 37.8022 105.13 38.4008 105.554 38.6553C105.935 38.8823 106.852 38.9924 108.303 38.9924C109.754 38.9924 110.677 38.8823 111.059 38.6553C111.482 38.4076 111.69 37.8091 111.69 36.8529V33.6401H110.052V36.8529ZM118.702 33.9566C118.424 33.7433 117.848 33.6401 116.973 33.6401H112.968V38.9167H114.606V37.6234H116.973C117.848 37.6234 118.424 37.5133 118.709 37.3C119.049 37.0386 119.222 36.4814 119.222 35.6352C119.222 34.789 119.049 34.2249 118.702 33.9566ZM117.411 36.1374C117.313 36.2199 117.168 36.2612 116.973 36.2612H114.606V35.0092H116.973C117.168 35.0092 117.32 35.0504 117.411 35.1261C117.529 35.2224 117.591 35.3944 117.591 35.6352C117.591 35.876 117.529 36.0342 117.411 36.1374ZM100.139 33.5713C98.445 33.5713 97.4245 33.7089 97.0843 33.9841C96.7789 34.2318 96.6262 35.0023 96.6262 36.2887C96.6262 37.2244 96.6747 37.8366 96.7719 38.1256C96.9038 38.5039 97.2093 38.7516 97.6952 38.8617C98.084 38.9511 98.8962 38.9924 100.139 38.9924C101.84 38.9924 102.853 38.8548 103.193 38.5865C103.506 38.3388 103.665 37.5683 103.665 36.2819C103.665 34.9954 103.506 34.2318 103.186 33.9703C102.846 33.702 101.833 33.5645 100.139 33.5645V33.5713ZM101.791 37.4583C101.631 37.5683 101.083 37.6302 100.139 37.6302C99.1947 37.6302 98.6532 37.5752 98.5005 37.4583C98.3408 37.3482 98.2645 36.9629 98.2645 36.2887C98.2645 35.6145 98.3408 35.2155 98.5005 35.0986C98.6532 34.9885 99.2016 34.9335 100.146 34.9335C101.09 34.9335 101.638 34.9885 101.791 35.0986C101.944 35.2087 102.02 35.6077 102.02 36.2887C102.02 36.9698 101.944 37.3551 101.791 37.4583ZM69.8924 33.6539L67.2544 38.9236H69.1704L69.6772 38.0499H72.926L73.4328 38.9236H75.3419L72.7039 33.6539H69.8924ZM70.2881 36.6809L71.1767 34.844H71.4266L72.3151 36.6809H70.2881ZM94.7935 36.1855C94.9045 35.9654 94.9601 35.6283 94.9601 35.1811C94.9601 34.6033 94.8282 34.1974 94.5644 33.9635C94.3214 33.7502 93.9049 33.647 93.3217 33.647H88.5595V38.9236H90.1978V37.4514H92.7872C92.9746 37.4514 93.1065 37.5133 93.2037 37.6302C93.287 37.7266 93.3217 37.8504 93.3217 37.988V38.9305H94.9601V37.7541C94.9601 37.4376 94.9115 37.2106 94.8212 37.073C94.724 36.9423 94.5227 36.8116 94.2242 36.6809C94.4949 36.5777 94.6824 36.4126 94.8004 36.1924L94.7935 36.1855ZM93.2037 35.9654C93.1274 36.0411 92.9955 36.0824 92.815 36.0824H90.1909V35.016H92.815C92.9885 35.016 93.1135 35.0573 93.1968 35.133C93.2801 35.2087 93.3148 35.3531 93.3148 35.5526C93.3148 35.7521 93.2801 35.8897 93.2037 35.9654ZM83.714 34.9404C84.6234 34.9404 85.151 34.9679 85.3106 35.016C85.4634 35.0711 85.5397 35.2499 85.5397 35.5595H87.178C87.178 34.6239 86.9906 34.0529 86.6227 33.8465C86.2895 33.6608 85.3245 33.5713 83.7279 33.5713C82.1312 33.5713 81.0621 33.7089 80.7289 33.9772C80.4165 34.2318 80.2568 35.0023 80.2568 36.2887C80.2568 37.5752 80.4165 38.3457 80.7428 38.6071C81.0621 38.8754 82.0618 39.0062 83.7279 39.0062C84.9982 39.0062 85.8105 38.9649 86.1645 38.8892C86.6435 38.7791 86.9351 38.5108 87.06 38.0843C87.1433 37.7816 87.185 37.0524 87.185 35.9104H83.5265V37.0868H85.5536C85.5536 37.3688 85.4772 37.5271 85.3315 37.5752C85.1857 37.6165 84.6511 37.644 83.7348 37.644C82.8184 37.644 82.2839 37.589 82.1381 37.472C81.9854 37.3619 81.909 36.9698 81.909 36.3025C81.909 35.6352 81.9854 35.2293 82.1381 35.1123C82.2909 35.0023 82.8254 34.9404 83.7279 34.9404H83.714Z" stroke="#C57F19" stroke-opacity="0.4" stroke-width="0.2" stroke-linejoin="round" mask="url(#path-2-inside-1_1275_760)"/>
<defs>
<linearGradient id="paint0_linear_1275_760" x1="59.4889" y1="-5.49296" x2="59.4889" y2="50.6803" gradientUnits="userSpaceOnUse">
<stop offset="0.166667" stop-color="white"/>
<stop offset="0.494792" stop-color="#D2D2D2"/>
<stop offset="0.734375"/>
<stop offset="0.927083" stop-color="#E4E4E4"/>
</linearGradient>
<linearGradient id="paint1_linear_1275_760" x1="59.4889" y1="-5.49345" x2="59.4889" y2="50.6799" gradientUnits="userSpaceOnUse">
<stop offset="0.166667" stop-color="white"/>
<stop offset="0.494792" stop-color="#D2D2D2"/>
<stop offset="0.734375"/>
<stop offset="0.927083" stop-color="#E4E4E4"/>
</linearGradient>
</defs>
</svg>
