<svg width="24" height="24" viewBox="0 0 24 24" fill="none" xmlns="http://www.w3.org/2000/svg">
<g clip-path="url(#clip0_1275_852)">
<g filter="url(#filter0_dd_1275_852)">
<path fill-rule="evenodd" clip-rule="evenodd" d="M12 4C10.9552 4 10 4.9232 10 6.2C10 6.78633 10.2454 7.38089 10.7483 8.07737C11.0951 8.55779 11.5201 9.02957 12 9.54178C12.4799 9.02957 12.9049 8.55779 13.2517 8.07737C13.7546 7.38089 14 6.78633 14 6.2C14 4.9232 13.0448 4 12 4ZM8 6.2C8 3.94218 9.73105 2 12 2C14.269 2 16 3.94218 16 6.2C16 7.38098 15.4954 8.38642 14.8733 9.24811C14.3584 9.96122 13.6991 10.6581 13.0745 11.3183C12.9579 11.4415 12.8425 11.5634 12.7295 11.6839C12.5405 11.8856 12.2764 12 12 12C11.7236 12 11.4595 11.8856 11.2705 11.6839C11.1575 11.5634 11.0421 11.4415 10.9255 11.3183C10.3009 10.6581 9.6416 9.96122 9.12674 9.24811C8.50459 8.38642 8 7.38098 8 6.2ZM2.47427 3.14935C2.76909 2.96714 3.13723 2.95058 3.44721 3.10557L5.44721 4.10557C5.94119 4.35256 6.14142 4.95324 5.89443 5.44721C5.64744 5.94119 5.04676 6.14142 4.55279 5.89443L4 5.61803V16.382L8 18.382V14C8 13.4477 8.44772 13 9 13C9.55228 13 10 13.4477 10 14V18.382L14 16.382V14C14 13.4477 14.4477 13 15 13C15.5523 13 16 13.4477 16 14V16.382L20 18.382V7.61803L18.5528 6.89443C18.0588 6.64744 17.8586 6.04676 18.1056 5.55279C18.3526 5.05881 18.9532 4.85858 19.4472 5.10557L21.4472 6.10557C21.786 6.27496 22 6.62123 22 7V20C22 20.3466 21.8205 20.6684 21.5257 20.8507C21.2309 21.0329 20.8628 21.0494 20.5528 20.8944L15 18.118L9.44721 20.8944C9.16569 21.0352 8.83431 21.0352 8.55279 20.8944L2.55279 17.8944C2.214 17.725 2 17.3788 2 17V4C2 3.65342 2.17945 3.33156 2.47427 3.14935ZM11 6C11 5.44772 11.4477 5 12 5H12.01C12.5623 5 13.01 5.44772 13.01 6C13.01 6.55228 12.5623 7 12.01 7H12C11.4477 7 11 6.55228 11 6Z" fill="url(#paint0_linear_1275_852)"/>
<path fill-rule="evenodd" clip-rule="evenodd" d="M12 4C10.9552 4 10 4.9232 10 6.2C10 6.78633 10.2454 7.38089 10.7483 8.07737C11.0951 8.55779 11.5201 9.02957 12 9.54178C12.4799 9.02957 12.9049 8.55779 13.2517 8.07737C13.7546 7.38089 14 6.78633 14 6.2C14 4.9232 13.0448 4 12 4ZM8 6.2C8 3.94218 9.73105 2 12 2C14.269 2 16 3.94218 16 6.2C16 7.38098 15.4954 8.38642 14.8733 9.24811C14.3584 9.96122 13.6991 10.6581 13.0745 11.3183C12.9579 11.4415 12.8425 11.5634 12.7295 11.6839C12.5405 11.8856 12.2764 12 12 12C11.7236 12 11.4595 11.8856 11.2705 11.6839C11.1575 11.5634 11.0421 11.4415 10.9255 11.3183C10.3009 10.6581 9.6416 9.96122 9.12674 9.24811C8.50459 8.38642 8 7.38098 8 6.2ZM2.47427 3.14935C2.76909 2.96714 3.13723 2.95058 3.44721 3.10557L5.44721 4.10557C5.94119 4.35256 6.14142 4.95324 5.89443 5.44721C5.64744 5.94119 5.04676 6.14142 4.55279 5.89443L4 5.61803V16.382L8 18.382V14C8 13.4477 8.44772 13 9 13C9.55228 13 10 13.4477 10 14V18.382L14 16.382V14C14 13.4477 14.4477 13 15 13C15.5523 13 16 13.4477 16 14V16.382L20 18.382V7.61803L18.5528 6.89443C18.0588 6.64744 17.8586 6.04676 18.1056 5.55279C18.3526 5.05881 18.9532 4.85858 19.4472 5.10557L21.4472 6.10557C21.786 6.27496 22 6.62123 22 7V20C22 20.3466 21.8205 20.6684 21.5257 20.8507C21.2309 21.0329 20.8628 21.0494 20.5528 20.8944L15 18.118L9.44721 20.8944C9.16569 21.0352 8.83431 21.0352 8.55279 20.8944L2.55279 17.8944C2.214 17.725 2 17.3788 2 17V4C2 3.65342 2.17945 3.33156 2.47427 3.14935ZM11 6C11 5.44772 11.4477 5 12 5H12.01C12.5623 5 13.01 5.44772 13.01 6C13.01 6.55228 12.5623 7 12.01 7H12C11.4477 7 11 6.55228 11 6Z" fill="#C57F19" fill-opacity="0.4"/>
<path d="M11.8176 9.71271C11.8648 9.76316 11.9309 9.79178 12 9.79178C12.0691 9.79178 12.1352 9.76316 12.1824 9.71271C12.6629 9.1999 13.0975 8.71813 13.4544 8.22371C13.9723 7.5065 14.25 6.86059 14.25 6.2C14.25 4.79833 13.1957 3.75 12 3.75C10.8043 3.75 9.75 4.79833 9.75 6.2C9.75 6.86059 10.0277 7.5065 10.5456 8.22371C10.9025 8.71813 11.3371 9.1999 11.8176 9.71271ZM4.1118 5.39443C4.03431 5.35568 3.94227 5.35982 3.86857 5.40537C3.79486 5.45092 3.75 5.53139 3.75 5.61803V16.382C3.75 16.4767 3.8035 16.5632 3.8882 16.6056L7.8882 18.6056C7.96569 18.6443 8.05773 18.6402 8.13143 18.5946C8.20514 18.5491 8.25 18.4686 8.25 18.382V14C8.25 13.5858 8.58579 13.25 9 13.25C9.41421 13.25 9.75 13.5858 9.75 14V18.382C9.75 18.4686 9.79486 18.5491 9.86857 18.5946C9.94227 18.6402 10.0343 18.6443 10.1118 18.6056L14.1118 16.6056C14.1965 16.5632 14.25 16.4767 14.25 16.382V14C14.25 13.5858 14.5858 13.25 15 13.25C15.4142 13.25 15.75 13.5858 15.75 14V16.382C15.75 16.4767 15.8035 16.5632 15.8882 16.6056L19.8882 18.6056C19.9657 18.6443 20.0577 18.6402 20.1314 18.5946C20.2051 18.5491 20.25 18.4686 20.25 18.382V7.61803C20.25 7.52334 20.1965 7.43678 20.1118 7.39443L18.6646 6.67082C18.2941 6.48558 18.1439 6.03507 18.3292 5.66459C18.5144 5.29411 18.9649 5.14394 19.3354 5.32918L21.3354 6.32918C21.5895 6.45622 21.75 6.71592 21.75 7V20C21.75 20.2599 21.6154 20.5013 21.3943 20.638C21.1732 20.7746 20.8971 20.7871 20.6646 20.6708L15.1118 17.8944C15.0414 17.8592 14.9586 17.8592 14.8882 17.8944L9.33541 20.6708C9.12426 20.7764 8.87574 20.7764 8.66459 20.6708L2.66459 17.6708C2.4105 17.5438 2.25 17.2841 2.25 17V4C2.25 3.74007 2.38459 3.49867 2.6057 3.36201C2.82681 3.22536 3.10292 3.21293 3.33541 3.32918L5.33541 4.32918C5.70589 4.51442 5.85606 4.96493 5.67082 5.33541C5.48558 5.70589 5.03507 5.85606 4.66459 5.67082L4.1118 5.39443ZM8.25 6.2C8.25 4.06365 9.88515 2.25 12 2.25C14.1149 2.25 15.75 4.06365 15.75 6.2C15.75 7.30661 15.2778 8.26068 14.6706 9.10177C14.1672 9.79898 13.52 10.4836 12.8929 11.1465L12.8923 11.147C12.776 11.27 12.6604 11.3921 12.5472 11.513C12.4054 11.6642 12.2073 11.75 12 11.75C11.7927 11.75 11.5946 11.6642 11.4528 11.513C11.3395 11.392 11.2238 11.2697 11.1073 11.1467L11.1071 11.1465C10.48 10.4836 9.83281 9.79898 9.32943 9.10177C8.72216 8.26068 8.25 7.30661 8.25 6.2ZM11.25 6C11.25 5.58579 11.5858 5.25 12 5.25H12.01C12.4242 5.25 12.76 5.58579 12.76 6C12.76 6.41421 12.4242 6.75 12.01 6.75H12C11.5858 6.75 11.25 6.41421 11.25 6Z" stroke="url(#paint1_linear_1275_852)" stroke-width="0.5" stroke-linejoin="round"/>
<path d="M11.8176 9.71271C11.8648 9.76316 11.9309 9.79178 12 9.79178C12.0691 9.79178 12.1352 9.76316 12.1824 9.71271C12.6629 9.1999 13.0975 8.71813 13.4544 8.22371C13.9723 7.5065 14.25 6.86059 14.25 6.2C14.25 4.79833 13.1957 3.75 12 3.75C10.8043 3.75 9.75 4.79833 9.75 6.2C9.75 6.86059 10.0277 7.5065 10.5456 8.22371C10.9025 8.71813 11.3371 9.1999 11.8176 9.71271ZM4.1118 5.39443C4.03431 5.35568 3.94227 5.35982 3.86857 5.40537C3.79486 5.45092 3.75 5.53139 3.75 5.61803V16.382C3.75 16.4767 3.8035 16.5632 3.8882 16.6056L7.8882 18.6056C7.96569 18.6443 8.05773 18.6402 8.13143 18.5946C8.20514 18.5491 8.25 18.4686 8.25 18.382V14C8.25 13.5858 8.58579 13.25 9 13.25C9.41421 13.25 9.75 13.5858 9.75 14V18.382C9.75 18.4686 9.79486 18.5491 9.86857 18.5946C9.94227 18.6402 10.0343 18.6443 10.1118 18.6056L14.1118 16.6056C14.1965 16.5632 14.25 16.4767 14.25 16.382V14C14.25 13.5858 14.5858 13.25 15 13.25C15.4142 13.25 15.75 13.5858 15.75 14V16.382C15.75 16.4767 15.8035 16.5632 15.8882 16.6056L19.8882 18.6056C19.9657 18.6443 20.0577 18.6402 20.1314 18.5946C20.2051 18.5491 20.25 18.4686 20.25 18.382V7.61803C20.25 7.52334 20.1965 7.43678 20.1118 7.39443L18.6646 6.67082C18.2941 6.48558 18.1439 6.03507 18.3292 5.66459C18.5144 5.29411 18.9649 5.14394 19.3354 5.32918L21.3354 6.32918C21.5895 6.45622 21.75 6.71592 21.75 7V20C21.75 20.2599 21.6154 20.5013 21.3943 20.638C21.1732 20.7746 20.8971 20.7871 20.6646 20.6708L15.1118 17.8944C15.0414 17.8592 14.9586 17.8592 14.8882 17.8944L9.33541 20.6708C9.12426 20.7764 8.87574 20.7764 8.66459 20.6708L2.66459 17.6708C2.4105 17.5438 2.25 17.2841 2.25 17V4C2.25 3.74007 2.38459 3.49867 2.6057 3.36201C2.82681 3.22536 3.10292 3.21293 3.33541 3.32918L5.33541 4.32918C5.70589 4.51442 5.85606 4.96493 5.67082 5.33541C5.48558 5.70589 5.03507 5.85606 4.66459 5.67082L4.1118 5.39443ZM8.25 6.2C8.25 4.06365 9.88515 2.25 12 2.25C14.1149 2.25 15.75 4.06365 15.75 6.2C15.75 7.30661 15.2778 8.26068 14.6706 9.10177C14.1672 9.79898 13.52 10.4836 12.8929 11.1465L12.8923 11.147C12.776 11.27 12.6604 11.3921 12.5472 11.513C12.4054 11.6642 12.2073 11.75 12 11.75C11.7927 11.75 11.5946 11.6642 11.4528 11.513C11.3395 11.392 11.2238 11.2697 11.1073 11.1467L11.1071 11.1465C10.48 10.4836 9.83281 9.79898 9.32943 9.10177C8.72216 8.26068 8.25 7.30661 8.25 6.2ZM11.25 6C11.25 5.58579 11.5858 5.25 12 5.25H12.01C12.4242 5.25 12.76 5.58579 12.76 6C12.76 6.41421 12.4242 6.75 12.01 6.75H12C11.5858 6.75 11.25 6.41421 11.25 6Z" stroke="#C57F19" stroke-opacity="0.4" stroke-width="0.5" stroke-linejoin="round"/>
</g>
</g>
<defs>
<filter id="filter0_dd_1275_852" x="-18" y="-16" width="60" height="59" filterUnits="userSpaceOnUse" color-interpolation-filters="sRGB">
<feFlood flood-opacity="0" result="BackgroundImageFix"/>
<feColorMatrix in="SourceAlpha" type="matrix" values="0 0 0 0 0 0 0 0 0 0 0 0 0 0 0 0 0 0 127 0" result="hardAlpha"/>
<feOffset dy="2"/>
<feGaussianBlur stdDeviation="1"/>
<feColorMatrix type="matrix" values="0 0 0 0 0 0 0 0 0 0 0 0 0 0 0 0 0 0 0.3 0"/>
<feBlend mode="normal" in2="BackgroundImageFix" result="effect1_dropShadow_1275_852"/>
<feColorMatrix in="SourceAlpha" type="matrix" values="0 0 0 0 0 0 0 0 0 0 0 0 0 0 0 0 0 0 127 0" result="hardAlpha"/>
<feOffset dy="2"/>
<feGaussianBlur stdDeviation="10"/>
<feColorMatrix type="matrix" values="0 0 0 0 0 0 0 0 0 0 0 0 0 0 0 0 0 0 0.2 0"/>
<feBlend mode="normal" in2="effect1_dropShadow_1275_852" result="effect2_dropShadow_1275_852"/>
<feBlend mode="normal" in="SourceGraphic" in2="effect2_dropShadow_1275_852" result="shape"/>
</filter>
<linearGradient id="paint0_linear_1275_852" x1="11.9148" y1="-0.675586" x2="11.9148" y2="26.6861" gradientUnits="userSpaceOnUse">
<stop stop-color="#ECECEC"/>
<stop offset="0.471084" stop-color="#BBBBBB"/>
<stop offset="0.474255" stop-color="#3E3E3E"/>
<stop offset="1" stop-color="#969696"/>
</linearGradient>
<linearGradient id="paint1_linear_1275_852" x1="11.9148" y1="-0.675586" x2="11.9148" y2="26.6861" gradientUnits="userSpaceOnUse">
<stop offset="0.166667" stop-color="white"/>
<stop offset="0.494792" stop-color="#D2D2D2"/>
<stop offset="0.734375"/>
<stop offset="0.927083" stop-color="#E4E4E4"/>
</linearGradient>
<clipPath id="clip0_1275_852">
<rect width="24" height="24" fill="white"/>
</clipPath>
</defs>
</svg>
