<svg width="91" height="30" viewBox="0 0 91 30" fill="none" xmlns="http://www.w3.org/2000/svg">
<path d="M33.8415 7.47162C33.7034 7.47162 33.5915 7.58355 33.5915 7.72162V22.4671H27.5291V13.3382L35.2845 0.867269L44.1633 11.4644C44.2107 11.5211 44.2808 11.5538 44.3547 11.5539C44.4286 11.5539 44.4987 11.5213 44.5462 11.4648L53.9759 0.25H61.2122V22.4723H55.1498V7.72162C55.1498 7.58355 55.0379 7.47162 54.8998 7.47162H54.7895C54.716 7.47162 54.6463 7.50392 54.5988 7.55994L44.3913 19.5974L34.1422 7.55956C34.0947 7.50377 34.0251 7.47162 33.9518 7.47162H33.8415ZM33.5861 0.25L19.772 22.4671H14.2671L0.449884 0.25H7.24282L16.7897 15.6479C16.8353 15.7214 16.9155 15.7661 17.002 15.7661C17.0884 15.7662 17.1688 15.7216 17.2145 15.6482L26.7928 0.25H33.5861ZM90.5719 9.24207V16.9376C90.5719 19.061 90.1275 20.4231 89.2927 21.1838L89.2923 21.1842C88.4671 21.9397 86.9695 22.3421 84.6221 22.3421H69.2172C66.8698 22.3421 65.3721 21.9397 64.547 21.1842L64.546 21.1833C63.7068 20.4229 63.2674 19.0618 63.2674 16.9376V5.81074C63.2674 3.70418 63.7112 2.35145 64.547 1.585C65.3721 0.829456 66.8698 0.42703 69.2172 0.42703H84.6221C85.1345 0.42703 85.9232 0.438704 86.5853 0.450421C86.8007 0.454232 87.0024 0.458043 87.1765 0.46145L82.3408 5.10279L69.5528 5.13379C69.415 5.13412 69.3034 5.24595 69.3034 5.38379V17.2188C69.3034 17.3568 69.4153 17.4688 69.5534 17.4688H84.3962C84.5343 17.4688 84.6462 17.3568 84.6462 17.2188V14.0739C84.6462 13.9358 84.5343 13.8239 84.3962 13.8239H76.5205L78.9828 10.8435C78.9921 10.8323 79.0003 10.8204 79.0073 10.808L80.3201 9.24207H90.5719Z" fill="#C6A47E"/>
<path d="M33.8415 7.47162C33.7034 7.47162 33.5915 7.58355 33.5915 7.72162V22.4671H27.5291V13.3382L35.2845 0.867269L44.1633 11.4644C44.2107 11.5211 44.2808 11.5538 44.3547 11.5539C44.4286 11.5539 44.4987 11.5213 44.5462 11.4648L53.9759 0.25H61.2122V22.4723H55.1498V7.72162C55.1498 7.58355 55.0379 7.47162 54.8998 7.47162H54.7895C54.716 7.47162 54.6463 7.50392 54.5988 7.55994L44.3913 19.5974L34.1422 7.55956C34.0947 7.50377 34.0251 7.47162 33.9518 7.47162H33.8415ZM33.5861 0.25L19.772 22.4671H14.2671L0.449884 0.25H7.24282L16.7897 15.6479C16.8353 15.7214 16.9155 15.7661 17.002 15.7661C17.0884 15.7662 17.1688 15.7216 17.2145 15.6482L26.7928 0.25H33.5861ZM90.5719 9.24207V16.9376C90.5719 19.061 90.1275 20.4231 89.2927 21.1838L89.2923 21.1842C88.4671 21.9397 86.9695 22.3421 84.6221 22.3421H69.2172C66.8698 22.3421 65.3721 21.9397 64.547 21.1842L64.546 21.1833C63.7068 20.4229 63.2674 19.0618 63.2674 16.9376V5.81074C63.2674 3.70418 63.7112 2.35145 64.547 1.585C65.3721 0.829456 66.8698 0.42703 69.2172 0.42703H84.6221C85.1345 0.42703 85.9232 0.438704 86.5853 0.450421C86.8007 0.454232 87.0024 0.458043 87.1765 0.46145L82.3408 5.10279L69.5528 5.13379C69.415 5.13412 69.3034 5.24595 69.3034 5.38379V17.2188C69.3034 17.3568 69.4153 17.4688 69.5534 17.4688H84.3962C84.5343 17.4688 84.6462 17.3568 84.6462 17.2188V14.0739C84.6462 13.9358 84.5343 13.8239 84.3962 13.8239H76.5205L78.9828 10.8435C78.9921 10.8323 79.0003 10.8204 79.0073 10.808L80.3201 9.24207H90.5719Z" stroke="url(#paint0_linear_1524_28)" stroke-width="0.5" stroke-linejoin="round"/>
<path d="M33.8415 7.47162C33.7034 7.47162 33.5915 7.58355 33.5915 7.72162V22.4671H27.5291V13.3382L35.2845 0.867269L44.1633 11.4644C44.2107 11.5211 44.2808 11.5538 44.3547 11.5539C44.4286 11.5539 44.4987 11.5213 44.5462 11.4648L53.9759 0.25H61.2122V22.4723H55.1498V7.72162C55.1498 7.58355 55.0379 7.47162 54.8998 7.47162H54.7895C54.716 7.47162 54.6463 7.50392 54.5988 7.55994L44.3913 19.5974L34.1422 7.55956C34.0947 7.50377 34.0251 7.47162 33.9518 7.47162H33.8415ZM33.5861 0.25L19.772 22.4671H14.2671L0.449884 0.25H7.24282L16.7897 15.6479C16.8353 15.7214 16.9155 15.7661 17.002 15.7661C17.0884 15.7662 17.1688 15.7216 17.2145 15.6482L26.7928 0.25H33.5861ZM90.5719 9.24207V16.9376C90.5719 19.061 90.1275 20.4231 89.2927 21.1838L89.2923 21.1842C88.4671 21.9397 86.9695 22.3421 84.6221 22.3421H69.2172C66.8698 22.3421 65.3721 21.9397 64.547 21.1842L64.546 21.1833C63.7068 20.4229 63.2674 19.0618 63.2674 16.9376V5.81074C63.2674 3.70418 63.7112 2.35145 64.547 1.585C65.3721 0.829456 66.8698 0.42703 69.2172 0.42703H84.6221C85.1345 0.42703 85.9232 0.438704 86.5853 0.450421C86.8007 0.454232 87.0024 0.458043 87.1765 0.46145L82.3408 5.10279L69.5528 5.13379C69.415 5.13412 69.3034 5.24595 69.3034 5.38379V17.2188C69.3034 17.3568 69.4153 17.4688 69.5534 17.4688H84.3962C84.5343 17.4688 84.6462 17.3568 84.6462 17.2188V14.0739C84.6462 13.9358 84.5343 13.8239 84.3962 13.8239H76.5205L78.9828 10.8435C78.9921 10.8323 79.0003 10.8204 79.0073 10.808L80.3201 9.24207H90.5719Z" stroke="#C57F19" stroke-opacity="0.4" stroke-width="0.5" stroke-linejoin="round"/>
<mask id="path-2-inside-1_1524_28" fill="white">
<path d="M46.4524 25.4596H42.9794V29.448H46.4524C47.1617 29.448 47.6293 29.3074 47.8552 29.0315C48.0601 28.7763 48.1652 28.2504 48.1652 27.4642C48.1652 26.678 48.0601 26.1417 47.8499 25.8866C47.624 25.6054 47.1564 25.4648 46.4524 25.4648V25.4596ZM46.7834 28.214C46.6888 28.3494 46.5102 28.4171 46.2422 28.4171H44.2194V26.4958H46.2422C46.5102 26.4958 46.6888 26.5635 46.7834 26.704C46.8779 26.8394 46.9252 27.0945 46.9252 27.4642C46.9252 27.8339 46.8779 28.0838 46.7834 28.2192V28.214ZM49.1687 29.4584H50.4087V25.47H49.1687V29.4584ZM23.8073 26.7717C23.739 26.855 23.697 26.9644 23.676 27.0945C23.6602 27.2299 23.6444 27.2976 23.6339 27.2976C23.6182 27.2195 23.6024 27.131 23.5866 27.0269C23.5656 26.9279 23.5236 26.8394 23.4658 26.7717L22.4307 25.4648H20.7337L22.9982 28.0734V29.4532H24.2381V28.0734L26.5342 25.4648H24.8371L23.8021 26.7717H23.8073ZM17.639 28.4014H17.5287L16.005 25.4648H14.6074L16.6407 29.4532H18.5217L20.555 25.4648H19.1574L17.6338 28.4014H17.639ZM37.6781 29.4532H42.0179V28.4847H38.918V27.938H41.8761V26.9748H38.918V26.4229H42.0179V25.4544H37.6781V29.448V29.4532ZM33.4538 27.7089C33.4328 27.8547 33.4118 27.9693 33.4012 28.0578C33.3855 28.1463 33.3697 28.1932 33.354 28.1932C33.3382 28.1932 33.3172 28.1203 33.3014 27.9693C33.2804 27.8235 33.2699 27.7402 33.2541 27.7141L32.1928 25.4752H29.9651V29.4636H31.205V26.6676C31.205 26.6363 31.1998 26.5895 31.1893 26.5374C31.163 26.4177 31.1525 26.3552 31.1525 26.3552C31.1525 26.3291 31.163 26.3135 31.184 26.3135C31.1998 26.3135 31.2155 26.3344 31.2366 26.3708C31.2576 26.4072 31.2786 26.4489 31.2996 26.501L32.8443 29.4636H33.8583L35.2875 26.5114C35.3032 26.4749 35.319 26.4333 35.3452 26.3864C35.3663 26.3448 35.3873 26.3239 35.403 26.3239C35.4241 26.3239 35.4398 26.3396 35.4398 26.3708C35.4398 26.3864 35.4293 26.4281 35.4136 26.501C35.3978 26.5739 35.3873 26.6311 35.3873 26.678V29.4636H36.6272V25.4752H34.5151L33.4538 27.7141V27.7089ZM83.2939 27.8912C83.2939 28.1307 83.2151 28.2869 83.0627 28.3598C82.9104 28.4379 82.5426 28.4795 81.9699 28.4795C81.3972 28.4795 81.0137 28.4379 80.856 28.3546C80.7194 28.2869 80.6511 28.1359 80.6511 27.8912V25.4596H79.4112V27.8912C79.4112 28.6097 79.5688 29.0627 79.8893 29.2553C80.1783 29.4272 80.8718 29.5105 81.9699 29.5105C83.068 29.5105 83.7668 29.4272 84.0558 29.2553C84.3763 29.0679 84.5339 28.6149 84.5339 27.8912V25.4596H83.2939V27.8912ZM89.8405 25.6991C89.6303 25.5377 89.1942 25.4596 88.5322 25.4596H85.5006V29.4532H86.7406V28.4743H88.5322C89.1942 28.4743 89.6303 28.391 89.8457 28.2296C90.1032 28.0318 90.2345 27.61 90.2345 26.9696C90.2345 26.3291 90.1032 25.9022 89.8405 25.6991ZM88.8632 27.3497C88.7897 27.4122 88.6793 27.4434 88.5322 27.4434H86.7406V26.4958H88.5322C88.6793 26.4958 88.7949 26.527 88.8632 26.5843C88.9526 26.6572 88.9998 26.7873 88.9998 26.9696C88.9998 27.1518 88.9526 27.2716 88.8632 27.3497ZM75.7911 25.4075C74.5091 25.4075 73.7368 25.5117 73.4793 25.72C73.2481 25.9074 73.1325 26.4906 73.1325 27.4642C73.1325 28.1723 73.1693 28.6357 73.2429 28.8544C73.3427 29.1408 73.5739 29.3282 73.9417 29.4115C74.2359 29.4792 74.8506 29.5105 75.7911 29.5105C77.0784 29.5105 77.8454 29.4063 78.1029 29.2033C78.3393 29.0158 78.4602 28.4327 78.4602 27.459C78.4602 26.4854 78.3393 25.9074 78.0976 25.7095C77.8402 25.5065 77.0731 25.4023 75.7911 25.4023V25.4075ZM77.0416 28.3494C76.9207 28.4327 76.5057 28.4795 75.7911 28.4795C75.0766 28.4795 74.6667 28.4379 74.5511 28.3494C74.4303 28.2661 74.3725 27.9745 74.3725 27.4642C74.3725 26.954 74.4303 26.652 74.5511 26.5634C74.6667 26.4801 75.0818 26.4385 75.7964 26.4385C76.5109 26.4385 76.926 26.4801 77.0416 26.5634C77.1572 26.6468 77.215 26.9488 77.215 27.4642C77.215 27.9797 77.1572 28.2713 77.0416 28.3494ZM52.8991 25.47L50.9026 29.4584H52.3527L52.7362 28.7972H55.1951L55.5787 29.4584H57.0236L55.027 25.47H52.8991ZM53.1986 27.761L53.8711 26.3708H54.0603L54.7328 27.761H53.1986ZM71.7455 27.3861C71.8295 27.2195 71.8716 26.9644 71.8716 26.6259C71.8716 26.1886 71.7717 25.8814 71.5721 25.7043C71.3882 25.5429 71.0729 25.4648 70.6316 25.4648H67.0273V29.4584H68.2673V28.3442H70.227C70.3689 28.3442 70.4687 28.391 70.5423 28.4795C70.6053 28.5524 70.6316 28.6462 70.6316 28.7503V29.4636H71.8716V28.5733C71.8716 28.3337 71.8348 28.1619 71.7665 28.0578C71.6929 27.9589 71.5406 27.8599 71.3146 27.761C71.5195 27.6829 71.6614 27.5579 71.7507 27.3913L71.7455 27.3861ZM70.5423 27.2195C70.4845 27.2768 70.3847 27.308 70.2481 27.308H68.262V26.501H70.2481C70.3794 26.501 70.474 26.5322 70.537 26.5895C70.6001 26.6468 70.6264 26.7561 70.6264 26.9071C70.6264 27.0581 70.6001 27.1622 70.5423 27.2195ZM63.36 26.4437C64.0482 26.4437 64.4476 26.4645 64.5684 26.501C64.684 26.5426 64.7418 26.678 64.7418 26.9123H65.9818C65.9818 26.2042 65.8399 25.772 65.5614 25.6158C65.3092 25.4752 64.5789 25.4075 63.3705 25.4075C62.162 25.4075 61.3529 25.5117 61.1007 25.7147C60.8643 25.9074 60.7434 26.4906 60.7434 27.4642C60.7434 28.4379 60.8643 29.021 61.1112 29.2189C61.3529 29.422 62.1095 29.5209 63.3705 29.5209C64.332 29.5209 64.9467 29.4896 65.2147 29.4324C65.5772 29.3491 65.7979 29.146 65.8924 28.8232C65.9555 28.5941 65.987 28.0422 65.987 27.1778H63.2181V28.0682H64.7523C64.7523 28.2817 64.6945 28.4014 64.5842 28.4379C64.4738 28.4691 64.0693 28.49 63.3757 28.49C62.6822 28.49 62.2776 28.4483 62.1673 28.3598C62.0517 28.2765 61.9939 27.9797 61.9939 27.4746C61.9939 26.9696 62.0517 26.6624 62.1673 26.5739C62.2829 26.4906 62.6874 26.4437 63.3705 26.4437H63.36Z"/>
</mask>
<path d="M46.4524 25.4596H42.9794V29.448H46.4524C47.1617 29.448 47.6293 29.3074 47.8552 29.0315C48.0601 28.7763 48.1652 28.2504 48.1652 27.4642C48.1652 26.678 48.0601 26.1417 47.8499 25.8866C47.624 25.6054 47.1564 25.4648 46.4524 25.4648V25.4596ZM46.7834 28.214C46.6888 28.3494 46.5102 28.4171 46.2422 28.4171H44.2194V26.4958H46.2422C46.5102 26.4958 46.6888 26.5635 46.7834 26.704C46.8779 26.8394 46.9252 27.0945 46.9252 27.4642C46.9252 27.8339 46.8779 28.0838 46.7834 28.2192V28.214ZM49.1687 29.4584H50.4087V25.47H49.1687V29.4584ZM23.8073 26.7717C23.739 26.855 23.697 26.9644 23.676 27.0945C23.6602 27.2299 23.6444 27.2976 23.6339 27.2976C23.6182 27.2195 23.6024 27.131 23.5866 27.0269C23.5656 26.9279 23.5236 26.8394 23.4658 26.7717L22.4307 25.4648H20.7337L22.9982 28.0734V29.4532H24.2381V28.0734L26.5342 25.4648H24.8371L23.8021 26.7717H23.8073ZM17.639 28.4014H17.5287L16.005 25.4648H14.6074L16.6407 29.4532H18.5217L20.555 25.4648H19.1574L17.6338 28.4014H17.639ZM37.6781 29.4532H42.0179V28.4847H38.918V27.938H41.8761V26.9748H38.918V26.4229H42.0179V25.4544H37.6781V29.448V29.4532ZM33.4538 27.7089C33.4328 27.8547 33.4118 27.9693 33.4012 28.0578C33.3855 28.1463 33.3697 28.1932 33.354 28.1932C33.3382 28.1932 33.3172 28.1203 33.3014 27.9693C33.2804 27.8235 33.2699 27.7402 33.2541 27.7141L32.1928 25.4752H29.9651V29.4636H31.205V26.6676C31.205 26.6363 31.1998 26.5895 31.1893 26.5374C31.163 26.4177 31.1525 26.3552 31.1525 26.3552C31.1525 26.3291 31.163 26.3135 31.184 26.3135C31.1998 26.3135 31.2155 26.3344 31.2366 26.3708C31.2576 26.4072 31.2786 26.4489 31.2996 26.501L32.8443 29.4636H33.8583L35.2875 26.5114C35.3032 26.4749 35.319 26.4333 35.3452 26.3864C35.3663 26.3448 35.3873 26.3239 35.403 26.3239C35.4241 26.3239 35.4398 26.3396 35.4398 26.3708C35.4398 26.3864 35.4293 26.4281 35.4136 26.501C35.3978 26.5739 35.3873 26.6311 35.3873 26.678V29.4636H36.6272V25.4752H34.5151L33.4538 27.7141V27.7089ZM83.2939 27.8912C83.2939 28.1307 83.2151 28.2869 83.0627 28.3598C82.9104 28.4379 82.5426 28.4795 81.9699 28.4795C81.3972 28.4795 81.0137 28.4379 80.856 28.3546C80.7194 28.2869 80.6511 28.1359 80.6511 27.8912V25.4596H79.4112V27.8912C79.4112 28.6097 79.5688 29.0627 79.8893 29.2553C80.1783 29.4272 80.8718 29.5105 81.9699 29.5105C83.068 29.5105 83.7668 29.4272 84.0558 29.2553C84.3763 29.0679 84.5339 28.6149 84.5339 27.8912V25.4596H83.2939V27.8912ZM89.8405 25.6991C89.6303 25.5377 89.1942 25.4596 88.5322 25.4596H85.5006V29.4532H86.7406V28.4743H88.5322C89.1942 28.4743 89.6303 28.391 89.8457 28.2296C90.1032 28.0318 90.2345 27.61 90.2345 26.9696C90.2345 26.3291 90.1032 25.9022 89.8405 25.6991ZM88.8632 27.3497C88.7897 27.4122 88.6793 27.4434 88.5322 27.4434H86.7406V26.4958H88.5322C88.6793 26.4958 88.7949 26.527 88.8632 26.5843C88.9526 26.6572 88.9998 26.7873 88.9998 26.9696C88.9998 27.1518 88.9526 27.2716 88.8632 27.3497ZM75.7911 25.4075C74.5091 25.4075 73.7368 25.5117 73.4793 25.72C73.2481 25.9074 73.1325 26.4906 73.1325 27.4642C73.1325 28.1723 73.1693 28.6357 73.2429 28.8544C73.3427 29.1408 73.5739 29.3282 73.9417 29.4115C74.2359 29.4792 74.8506 29.5105 75.7911 29.5105C77.0784 29.5105 77.8454 29.4063 78.1029 29.2033C78.3393 29.0158 78.4602 28.4327 78.4602 27.459C78.4602 26.4854 78.3393 25.9074 78.0976 25.7095C77.8402 25.5065 77.0731 25.4023 75.7911 25.4023V25.4075ZM77.0416 28.3494C76.9207 28.4327 76.5057 28.4795 75.7911 28.4795C75.0766 28.4795 74.6667 28.4379 74.5511 28.3494C74.4303 28.2661 74.3725 27.9745 74.3725 27.4642C74.3725 26.954 74.4303 26.652 74.5511 26.5634C74.6667 26.4801 75.0818 26.4385 75.7964 26.4385C76.5109 26.4385 76.926 26.4801 77.0416 26.5634C77.1572 26.6468 77.215 26.9488 77.215 27.4642C77.215 27.9797 77.1572 28.2713 77.0416 28.3494ZM52.8991 25.47L50.9026 29.4584H52.3527L52.7362 28.7972H55.1951L55.5787 29.4584H57.0236L55.027 25.47H52.8991ZM53.1986 27.761L53.8711 26.3708H54.0603L54.7328 27.761H53.1986ZM71.7455 27.3861C71.8295 27.2195 71.8716 26.9644 71.8716 26.6259C71.8716 26.1886 71.7717 25.8814 71.5721 25.7043C71.3882 25.5429 71.0729 25.4648 70.6316 25.4648H67.0273V29.4584H68.2673V28.3442H70.227C70.3689 28.3442 70.4687 28.391 70.5423 28.4795C70.6053 28.5524 70.6316 28.6462 70.6316 28.7503V29.4636H71.8716V28.5733C71.8716 28.3337 71.8348 28.1619 71.7665 28.0578C71.6929 27.9589 71.5406 27.8599 71.3146 27.761C71.5195 27.6829 71.6614 27.5579 71.7507 27.3913L71.7455 27.3861ZM70.5423 27.2195C70.4845 27.2768 70.3847 27.308 70.2481 27.308H68.262V26.501H70.2481C70.3794 26.501 70.474 26.5322 70.537 26.5895C70.6001 26.6468 70.6264 26.7561 70.6264 26.9071C70.6264 27.0581 70.6001 27.1622 70.5423 27.2195ZM63.36 26.4437C64.0482 26.4437 64.4476 26.4645 64.5684 26.501C64.684 26.5426 64.7418 26.678 64.7418 26.9123H65.9818C65.9818 26.2042 65.8399 25.772 65.5614 25.6158C65.3092 25.4752 64.5789 25.4075 63.3705 25.4075C62.162 25.4075 61.3529 25.5117 61.1007 25.7147C60.8643 25.9074 60.7434 26.4906 60.7434 27.4642C60.7434 28.4379 60.8643 29.021 61.1112 29.2189C61.3529 29.422 62.1095 29.5209 63.3705 29.5209C64.332 29.5209 64.9467 29.4896 65.2147 29.4324C65.5772 29.3491 65.7979 29.146 65.8924 28.8232C65.9555 28.5941 65.987 28.0422 65.987 27.1778H63.2181V28.0682H64.7523C64.7523 28.2817 64.6945 28.4014 64.5842 28.4379C64.4738 28.4691 64.0693 28.49 63.3757 28.49C62.6822 28.49 62.2776 28.4483 62.1673 28.3598C62.0517 28.2765 61.9939 27.9797 61.9939 27.4746C61.9939 26.9696 62.0517 26.6624 62.1673 26.5739C62.2829 26.4906 62.6874 26.4437 63.3705 26.4437H63.36Z" fill="#C6A47E"/>
<path d="M46.4524 25.4596H42.9794V29.448H46.4524C47.1617 29.448 47.6293 29.3074 47.8552 29.0315C48.0601 28.7763 48.1652 28.2504 48.1652 27.4642C48.1652 26.678 48.0601 26.1417 47.8499 25.8866C47.624 25.6054 47.1564 25.4648 46.4524 25.4648V25.4596ZM46.7834 28.214C46.6888 28.3494 46.5102 28.4171 46.2422 28.4171H44.2194V26.4958H46.2422C46.5102 26.4958 46.6888 26.5635 46.7834 26.704C46.8779 26.8394 46.9252 27.0945 46.9252 27.4642C46.9252 27.8339 46.8779 28.0838 46.7834 28.2192V28.214ZM49.1687 29.4584H50.4087V25.47H49.1687V29.4584ZM23.8073 26.7717C23.739 26.855 23.697 26.9644 23.676 27.0945C23.6602 27.2299 23.6444 27.2976 23.6339 27.2976C23.6182 27.2195 23.6024 27.131 23.5866 27.0269C23.5656 26.9279 23.5236 26.8394 23.4658 26.7717L22.4307 25.4648H20.7337L22.9982 28.0734V29.4532H24.2381V28.0734L26.5342 25.4648H24.8371L23.8021 26.7717H23.8073ZM17.639 28.4014H17.5287L16.005 25.4648H14.6074L16.6407 29.4532H18.5217L20.555 25.4648H19.1574L17.6338 28.4014H17.639ZM37.6781 29.4532H42.0179V28.4847H38.918V27.938H41.8761V26.9748H38.918V26.4229H42.0179V25.4544H37.6781V29.448V29.4532ZM33.4538 27.7089C33.4328 27.8547 33.4118 27.9693 33.4012 28.0578C33.3855 28.1463 33.3697 28.1932 33.354 28.1932C33.3382 28.1932 33.3172 28.1203 33.3014 27.9693C33.2804 27.8235 33.2699 27.7402 33.2541 27.7141L32.1928 25.4752H29.9651V29.4636H31.205V26.6676C31.205 26.6363 31.1998 26.5895 31.1893 26.5374C31.163 26.4177 31.1525 26.3552 31.1525 26.3552C31.1525 26.3291 31.163 26.3135 31.184 26.3135C31.1998 26.3135 31.2155 26.3344 31.2366 26.3708C31.2576 26.4072 31.2786 26.4489 31.2996 26.501L32.8443 29.4636H33.8583L35.2875 26.5114C35.3032 26.4749 35.319 26.4333 35.3452 26.3864C35.3663 26.3448 35.3873 26.3239 35.403 26.3239C35.4241 26.3239 35.4398 26.3396 35.4398 26.3708C35.4398 26.3864 35.4293 26.4281 35.4136 26.501C35.3978 26.5739 35.3873 26.6311 35.3873 26.678V29.4636H36.6272V25.4752H34.5151L33.4538 27.7141V27.7089ZM83.2939 27.8912C83.2939 28.1307 83.2151 28.2869 83.0627 28.3598C82.9104 28.4379 82.5426 28.4795 81.9699 28.4795C81.3972 28.4795 81.0137 28.4379 80.856 28.3546C80.7194 28.2869 80.6511 28.1359 80.6511 27.8912V25.4596H79.4112V27.8912C79.4112 28.6097 79.5688 29.0627 79.8893 29.2553C80.1783 29.4272 80.8718 29.5105 81.9699 29.5105C83.068 29.5105 83.7668 29.4272 84.0558 29.2553C84.3763 29.0679 84.5339 28.6149 84.5339 27.8912V25.4596H83.2939V27.8912ZM89.8405 25.6991C89.6303 25.5377 89.1942 25.4596 88.5322 25.4596H85.5006V29.4532H86.7406V28.4743H88.5322C89.1942 28.4743 89.6303 28.391 89.8457 28.2296C90.1032 28.0318 90.2345 27.61 90.2345 26.9696C90.2345 26.3291 90.1032 25.9022 89.8405 25.6991ZM88.8632 27.3497C88.7897 27.4122 88.6793 27.4434 88.5322 27.4434H86.7406V26.4958H88.5322C88.6793 26.4958 88.7949 26.527 88.8632 26.5843C88.9526 26.6572 88.9998 26.7873 88.9998 26.9696C88.9998 27.1518 88.9526 27.2716 88.8632 27.3497ZM75.7911 25.4075C74.5091 25.4075 73.7368 25.5117 73.4793 25.72C73.2481 25.9074 73.1325 26.4906 73.1325 27.4642C73.1325 28.1723 73.1693 28.6357 73.2429 28.8544C73.3427 29.1408 73.5739 29.3282 73.9417 29.4115C74.2359 29.4792 74.8506 29.5105 75.7911 29.5105C77.0784 29.5105 77.8454 29.4063 78.1029 29.2033C78.3393 29.0158 78.4602 28.4327 78.4602 27.459C78.4602 26.4854 78.3393 25.9074 78.0976 25.7095C77.8402 25.5065 77.0731 25.4023 75.7911 25.4023V25.4075ZM77.0416 28.3494C76.9207 28.4327 76.5057 28.4795 75.7911 28.4795C75.0766 28.4795 74.6667 28.4379 74.5511 28.3494C74.4303 28.2661 74.3725 27.9745 74.3725 27.4642C74.3725 26.954 74.4303 26.652 74.5511 26.5634C74.6667 26.4801 75.0818 26.4385 75.7964 26.4385C76.5109 26.4385 76.926 26.4801 77.0416 26.5634C77.1572 26.6468 77.215 26.9488 77.215 27.4642C77.215 27.9797 77.1572 28.2713 77.0416 28.3494ZM52.8991 25.47L50.9026 29.4584H52.3527L52.7362 28.7972H55.1951L55.5787 29.4584H57.0236L55.027 25.47H52.8991ZM53.1986 27.761L53.8711 26.3708H54.0603L54.7328 27.761H53.1986ZM71.7455 27.3861C71.8295 27.2195 71.8716 26.9644 71.8716 26.6259C71.8716 26.1886 71.7717 25.8814 71.5721 25.7043C71.3882 25.5429 71.0729 25.4648 70.6316 25.4648H67.0273V29.4584H68.2673V28.3442H70.227C70.3689 28.3442 70.4687 28.391 70.5423 28.4795C70.6053 28.5524 70.6316 28.6462 70.6316 28.7503V29.4636H71.8716V28.5733C71.8716 28.3337 71.8348 28.1619 71.7665 28.0578C71.6929 27.9589 71.5406 27.8599 71.3146 27.761C71.5195 27.6829 71.6614 27.5579 71.7507 27.3913L71.7455 27.3861ZM70.5423 27.2195C70.4845 27.2768 70.3847 27.308 70.2481 27.308H68.262V26.501H70.2481C70.3794 26.501 70.474 26.5322 70.537 26.5895C70.6001 26.6468 70.6264 26.7561 70.6264 26.9071C70.6264 27.0581 70.6001 27.1622 70.5423 27.2195ZM63.36 26.4437C64.0482 26.4437 64.4476 26.4645 64.5684 26.501C64.684 26.5426 64.7418 26.678 64.7418 26.9123H65.9818C65.9818 26.2042 65.8399 25.772 65.5614 25.6158C65.3092 25.4752 64.5789 25.4075 63.3705 25.4075C62.162 25.4075 61.3529 25.5117 61.1007 25.7147C60.8643 25.9074 60.7434 26.4906 60.7434 27.4642C60.7434 28.4379 60.8643 29.021 61.1112 29.2189C61.3529 29.422 62.1095 29.5209 63.3705 29.5209C64.332 29.5209 64.9467 29.4896 65.2147 29.4324C65.5772 29.3491 65.7979 29.146 65.8924 28.8232C65.9555 28.5941 65.987 28.0422 65.987 27.1778H63.2181V28.0682H64.7523C64.7523 28.2817 64.6945 28.4014 64.5842 28.4379C64.4738 28.4691 64.0693 28.49 63.3757 28.49C62.6822 28.49 62.2776 28.4483 62.1673 28.3598C62.0517 28.2765 61.9939 27.9797 61.9939 27.4746C61.9939 26.9696 62.0517 26.6624 62.1673 26.5739C62.2829 26.4906 62.6874 26.4437 63.3705 26.4437H63.36Z" stroke="url(#paint1_linear_1524_28)" stroke-width="0.2" stroke-linejoin="round" mask="url(#path-2-inside-1_1524_28)"/>
<path d="M46.4524 25.4596H42.9794V29.448H46.4524C47.1617 29.448 47.6293 29.3074 47.8552 29.0315C48.0601 28.7763 48.1652 28.2504 48.1652 27.4642C48.1652 26.678 48.0601 26.1417 47.8499 25.8866C47.624 25.6054 47.1564 25.4648 46.4524 25.4648V25.4596ZM46.7834 28.214C46.6888 28.3494 46.5102 28.4171 46.2422 28.4171H44.2194V26.4958H46.2422C46.5102 26.4958 46.6888 26.5635 46.7834 26.704C46.8779 26.8394 46.9252 27.0945 46.9252 27.4642C46.9252 27.8339 46.8779 28.0838 46.7834 28.2192V28.214ZM49.1687 29.4584H50.4087V25.47H49.1687V29.4584ZM23.8073 26.7717C23.739 26.855 23.697 26.9644 23.676 27.0945C23.6602 27.2299 23.6444 27.2976 23.6339 27.2976C23.6182 27.2195 23.6024 27.131 23.5866 27.0269C23.5656 26.9279 23.5236 26.8394 23.4658 26.7717L22.4307 25.4648H20.7337L22.9982 28.0734V29.4532H24.2381V28.0734L26.5342 25.4648H24.8371L23.8021 26.7717H23.8073ZM17.639 28.4014H17.5287L16.005 25.4648H14.6074L16.6407 29.4532H18.5217L20.555 25.4648H19.1574L17.6338 28.4014H17.639ZM37.6781 29.4532H42.0179V28.4847H38.918V27.938H41.8761V26.9748H38.918V26.4229H42.0179V25.4544H37.6781V29.448V29.4532ZM33.4538 27.7089C33.4328 27.8547 33.4118 27.9693 33.4012 28.0578C33.3855 28.1463 33.3697 28.1932 33.354 28.1932C33.3382 28.1932 33.3172 28.1203 33.3014 27.9693C33.2804 27.8235 33.2699 27.7402 33.2541 27.7141L32.1928 25.4752H29.9651V29.4636H31.205V26.6676C31.205 26.6363 31.1998 26.5895 31.1893 26.5374C31.163 26.4177 31.1525 26.3552 31.1525 26.3552C31.1525 26.3291 31.163 26.3135 31.184 26.3135C31.1998 26.3135 31.2155 26.3344 31.2366 26.3708C31.2576 26.4072 31.2786 26.4489 31.2996 26.501L32.8443 29.4636H33.8583L35.2875 26.5114C35.3032 26.4749 35.319 26.4333 35.3452 26.3864C35.3663 26.3448 35.3873 26.3239 35.403 26.3239C35.4241 26.3239 35.4398 26.3396 35.4398 26.3708C35.4398 26.3864 35.4293 26.4281 35.4136 26.501C35.3978 26.5739 35.3873 26.6311 35.3873 26.678V29.4636H36.6272V25.4752H34.5151L33.4538 27.7141V27.7089ZM83.2939 27.8912C83.2939 28.1307 83.2151 28.2869 83.0627 28.3598C82.9104 28.4379 82.5426 28.4795 81.9699 28.4795C81.3972 28.4795 81.0137 28.4379 80.856 28.3546C80.7194 28.2869 80.6511 28.1359 80.6511 27.8912V25.4596H79.4112V27.8912C79.4112 28.6097 79.5688 29.0627 79.8893 29.2553C80.1783 29.4272 80.8718 29.5105 81.9699 29.5105C83.068 29.5105 83.7668 29.4272 84.0558 29.2553C84.3763 29.0679 84.5339 28.6149 84.5339 27.8912V25.4596H83.2939V27.8912ZM89.8405 25.6991C89.6303 25.5377 89.1942 25.4596 88.5322 25.4596H85.5006V29.4532H86.7406V28.4743H88.5322C89.1942 28.4743 89.6303 28.391 89.8457 28.2296C90.1032 28.0318 90.2345 27.61 90.2345 26.9696C90.2345 26.3291 90.1032 25.9022 89.8405 25.6991ZM88.8632 27.3497C88.7897 27.4122 88.6793 27.4434 88.5322 27.4434H86.7406V26.4958H88.5322C88.6793 26.4958 88.7949 26.527 88.8632 26.5843C88.9526 26.6572 88.9998 26.7873 88.9998 26.9696C88.9998 27.1518 88.9526 27.2716 88.8632 27.3497ZM75.7911 25.4075C74.5091 25.4075 73.7368 25.5117 73.4793 25.72C73.2481 25.9074 73.1325 26.4906 73.1325 27.4642C73.1325 28.1723 73.1693 28.6357 73.2429 28.8544C73.3427 29.1408 73.5739 29.3282 73.9417 29.4115C74.2359 29.4792 74.8506 29.5105 75.7911 29.5105C77.0784 29.5105 77.8454 29.4063 78.1029 29.2033C78.3393 29.0158 78.4602 28.4327 78.4602 27.459C78.4602 26.4854 78.3393 25.9074 78.0976 25.7095C77.8402 25.5065 77.0731 25.4023 75.7911 25.4023V25.4075ZM77.0416 28.3494C76.9207 28.4327 76.5057 28.4795 75.7911 28.4795C75.0766 28.4795 74.6667 28.4379 74.5511 28.3494C74.4303 28.2661 74.3725 27.9745 74.3725 27.4642C74.3725 26.954 74.4303 26.652 74.5511 26.5634C74.6667 26.4801 75.0818 26.4385 75.7964 26.4385C76.5109 26.4385 76.926 26.4801 77.0416 26.5634C77.1572 26.6468 77.215 26.9488 77.215 27.4642C77.215 27.9797 77.1572 28.2713 77.0416 28.3494ZM52.8991 25.47L50.9026 29.4584H52.3527L52.7362 28.7972H55.1951L55.5787 29.4584H57.0236L55.027 25.47H52.8991ZM53.1986 27.761L53.8711 26.3708H54.0603L54.7328 27.761H53.1986ZM71.7455 27.3861C71.8295 27.2195 71.8716 26.9644 71.8716 26.6259C71.8716 26.1886 71.7717 25.8814 71.5721 25.7043C71.3882 25.5429 71.0729 25.4648 70.6316 25.4648H67.0273V29.4584H68.2673V28.3442H70.227C70.3689 28.3442 70.4687 28.391 70.5423 28.4795C70.6053 28.5524 70.6316 28.6462 70.6316 28.7503V29.4636H71.8716V28.5733C71.8716 28.3337 71.8348 28.1619 71.7665 28.0578C71.6929 27.9589 71.5406 27.8599 71.3146 27.761C71.5195 27.6829 71.6614 27.5579 71.7507 27.3913L71.7455 27.3861ZM70.5423 27.2195C70.4845 27.2768 70.3847 27.308 70.2481 27.308H68.262V26.501H70.2481C70.3794 26.501 70.474 26.5322 70.537 26.5895C70.6001 26.6468 70.6264 26.7561 70.6264 26.9071C70.6264 27.0581 70.6001 27.1622 70.5423 27.2195ZM63.36 26.4437C64.0482 26.4437 64.4476 26.4645 64.5684 26.501C64.684 26.5426 64.7418 26.678 64.7418 26.9123H65.9818C65.9818 26.2042 65.8399 25.772 65.5614 25.6158C65.3092 25.4752 64.5789 25.4075 63.3705 25.4075C62.162 25.4075 61.3529 25.5117 61.1007 25.7147C60.8643 25.9074 60.7434 26.4906 60.7434 27.4642C60.7434 28.4379 60.8643 29.021 61.1112 29.2189C61.3529 29.422 62.1095 29.5209 63.3705 29.5209C64.332 29.5209 64.9467 29.4896 65.2147 29.4324C65.5772 29.3491 65.7979 29.146 65.8924 28.8232C65.9555 28.5941 65.987 28.0422 65.987 27.1778H63.2181V28.0682H64.7523C64.7523 28.2817 64.6945 28.4014 64.5842 28.4379C64.4738 28.4691 64.0693 28.49 63.3757 28.49C62.6822 28.49 62.2776 28.4483 62.1673 28.3598C62.0517 28.2765 61.9939 27.9797 61.9939 27.4746C61.9939 26.9696 62.0517 26.6624 62.1673 26.5739C62.2829 26.4906 62.6874 26.4437 63.3705 26.4437H63.36Z" stroke="#C57F19" stroke-opacity="0.4" stroke-width="0.2" stroke-linejoin="round" mask="url(#path-2-inside-1_1524_28)"/>
<defs>
<linearGradient id="paint0_linear_1524_28" x1="45.0241" y1="-4.15734" x2="45.0241" y2="38.3574" gradientUnits="userSpaceOnUse">
<stop offset="0.166667" stop-color="white"/>
<stop offset="0.494792" stop-color="#D2D2D2"/>
<stop offset="0.734375"/>
<stop offset="0.927083" stop-color="#E4E4E4"/>
</linearGradient>
<linearGradient id="paint1_linear_1524_28" x1="45.0252" y1="-4.1586" x2="45.0252" y2="38.3561" gradientUnits="userSpaceOnUse">
<stop offset="0.166667" stop-color="white"/>
<stop offset="0.494792" stop-color="#D2D2D2"/>
<stop offset="0.734375"/>
<stop offset="0.927083" stop-color="#E4E4E4"/>
</linearGradient>
</defs>
</svg>
