<svg width="24" height="24" viewBox="0 0 24 24" fill="none" xmlns="http://www.w3.org/2000/svg">
<g clip-path="url(#clip0_1275_848)">
<g filter="url(#filter0_dd_1275_848)">
<path fill-rule="evenodd" clip-rule="evenodd" d="M6.16146 3H16.8385C17.3657 2.99998 17.8205 2.99997 18.195 3.03057C18.5904 3.06287 18.9836 3.13419 19.362 3.32698C19.8818 3.59187 20.3122 4.00207 20.6017 4.50621C20.6098 4.5199 20.6176 4.53375 20.6251 4.54772C20.6415 4.57751 20.6575 4.60762 20.673 4.63803C20.8658 5.01641 20.9371 5.40963 20.9694 5.80497C21 6.17954 21 6.6343 21 7.16144V9.5C21 10.0523 20.5523 10.5 20 10.5C19.4477 10.5 19 10.0523 19 9.5V7.2C19 7.12218 19 7.04808 18.9999 6.97742L14.1521 11.1581C14.1428 11.1661 14.1333 11.174 14.1237 11.1817L14.0977 11.2025C13.7632 11.4701 13.4712 11.7037 13.2129 11.881C12.9375 12.0701 12.6458 12.2344 12.2999 12.3301C11.7765 12.475 11.2235 12.475 10.7001 12.3301C10.3542 12.2344 10.0625 12.0701 9.78713 11.881C9.5288 11.7037 9.2368 11.4701 8.90232 11.2025L8.87628 11.1817C8.86564 11.1731 8.85518 11.1644 8.84489 11.1555L4.00014 6.9437C4.00002 7.02442 4 7.10971 4 7.2V13.8C4 14.3766 4.00078 14.7488 4.02393 15.0322C4.04612 15.3038 4.0838 15.4045 4.109 15.454C4.20487 15.6422 4.35785 15.7951 4.54601 15.891C4.59546 15.9162 4.69617 15.9539 4.96784 15.9761C5.25117 15.9992 5.62345 16 6.2 16H10.5C11.0523 16 11.5 16.4477 11.5 17C11.5 17.5523 11.0523 18 10.5 18H6.16148C5.63432 18 5.17955 18 4.80497 17.9694C4.40963 17.9371 4.01641 17.8658 3.63803 17.673C3.07354 17.3854 2.6146 16.9265 2.32698 16.362C2.13419 15.9836 2.06287 15.5904 2.03057 15.195C1.99997 14.8205 1.99998 14.3657 2 13.8385V7.16146C1.99998 6.63431 1.99997 6.17955 2.03057 5.80497C2.06287 5.40963 2.13419 5.01641 2.32698 4.63803C2.35016 4.59254 2.37446 4.54773 2.39983 4.50364C2.40728 4.49022 2.41506 4.47692 2.42318 4.46376C2.71215 3.97904 3.13282 3.5844 3.63803 3.32698C4.01641 3.13419 4.40963 3.06287 4.80497 3.03057C5.17955 2.99997 5.63431 2.99998 6.16146 3ZM4.85328 5.03527L10.1416 9.63268C10.5005 9.91977 10.7311 10.1032 10.919 10.2321C11.0992 10.3558 11.1837 10.3888 11.2334 10.4026C11.4078 10.4508 11.5922 10.4508 11.7666 10.4026C11.8163 10.3888 11.9008 10.3558 12.081 10.2321C12.2692 10.103 12.5001 9.91924 12.8599 9.63143L18.1841 5.04C18.1405 5.03412 18.0902 5.02867 18.0322 5.02393C17.7488 5.00078 17.3766 5 16.8 5H6.2C5.62345 5 5.25117 5.00078 4.96784 5.02393C4.92569 5.02737 4.88765 5.03119 4.85328 5.03527ZM20.2929 15.2929C20.4547 15.1311 20.4547 14.8689 20.2929 14.7071C20.1311 14.5453 19.8689 14.5453 19.7071 14.7071L15.5497 18.8646C15.4814 18.9328 15.4478 18.9666 15.4242 18.9919C15.4236 18.9925 15.4231 18.9931 15.4225 18.9937C15.4223 18.9945 15.4221 18.9953 15.4219 18.9961C15.414 19.0298 15.4045 19.0764 15.3856 19.1712L15.2748 19.7252L15.8289 19.6144C15.9236 19.5955 15.9702 19.586 16.0039 19.5781C16.0047 19.5779 16.0055 19.5777 16.0063 19.5775C16.0069 19.5769 16.0075 19.5764 16.0081 19.5758C16.0334 19.5522 16.0672 19.5186 16.1354 19.4503L20.2929 15.2929ZM18.2929 13.2929C19.2357 12.3501 20.7643 12.3501 21.7071 13.2929C22.6499 14.2357 22.6499 15.7643 21.7071 16.7071L17.5497 20.8646C17.5411 20.8731 17.5323 20.882 17.5232 20.8911C17.4241 20.9905 17.2993 21.1159 17.1511 21.2192C17.0223 21.309 16.8834 21.3834 16.7373 21.4407C16.569 21.5067 16.3955 21.541 16.2578 21.5683C16.2452 21.5708 16.233 21.5732 16.2211 21.5756L14.1961 21.9806C13.8683 22.0462 13.5293 21.9435 13.2929 21.7071C13.0565 21.4707 12.9538 21.1317 13.0194 20.8039L13.4244 18.7789C13.4268 18.767 13.4292 18.7548 13.4317 18.7422C13.459 18.6045 13.4933 18.431 13.5593 18.2627C13.6166 18.1166 13.691 17.9777 13.7808 17.8489C13.8842 17.7007 14.0095 17.5759 14.109 17.4768C14.118 17.4677 14.1269 17.4589 14.1354 17.4503L18.2929 13.2929Z" fill="url(#paint0_linear_1275_848)"/>
<path fill-rule="evenodd" clip-rule="evenodd" d="M6.16146 3H16.8385C17.3657 2.99998 17.8205 2.99997 18.195 3.03057C18.5904 3.06287 18.9836 3.13419 19.362 3.32698C19.8818 3.59187 20.3122 4.00207 20.6017 4.50621C20.6098 4.5199 20.6176 4.53375 20.6251 4.54772C20.6415 4.57751 20.6575 4.60762 20.673 4.63803C20.8658 5.01641 20.9371 5.40963 20.9694 5.80497C21 6.17954 21 6.6343 21 7.16144V9.5C21 10.0523 20.5523 10.5 20 10.5C19.4477 10.5 19 10.0523 19 9.5V7.2C19 7.12218 19 7.04808 18.9999 6.97742L14.1521 11.1581C14.1428 11.1661 14.1333 11.174 14.1237 11.1817L14.0977 11.2025C13.7632 11.4701 13.4712 11.7037 13.2129 11.881C12.9375 12.0701 12.6458 12.2344 12.2999 12.3301C11.7765 12.475 11.2235 12.475 10.7001 12.3301C10.3542 12.2344 10.0625 12.0701 9.78713 11.881C9.5288 11.7037 9.2368 11.4701 8.90232 11.2025L8.87628 11.1817C8.86564 11.1731 8.85518 11.1644 8.84489 11.1555L4.00014 6.9437C4.00002 7.02442 4 7.10971 4 7.2V13.8C4 14.3766 4.00078 14.7488 4.02393 15.0322C4.04612 15.3038 4.0838 15.4045 4.109 15.454C4.20487 15.6422 4.35785 15.7951 4.54601 15.891C4.59546 15.9162 4.69617 15.9539 4.96784 15.9761C5.25117 15.9992 5.62345 16 6.2 16H10.5C11.0523 16 11.5 16.4477 11.5 17C11.5 17.5523 11.0523 18 10.5 18H6.16148C5.63432 18 5.17955 18 4.80497 17.9694C4.40963 17.9371 4.01641 17.8658 3.63803 17.673C3.07354 17.3854 2.6146 16.9265 2.32698 16.362C2.13419 15.9836 2.06287 15.5904 2.03057 15.195C1.99997 14.8205 1.99998 14.3657 2 13.8385V7.16146C1.99998 6.63431 1.99997 6.17955 2.03057 5.80497C2.06287 5.40963 2.13419 5.01641 2.32698 4.63803C2.35016 4.59254 2.37446 4.54773 2.39983 4.50364C2.40728 4.49022 2.41506 4.47692 2.42318 4.46376C2.71215 3.97904 3.13282 3.5844 3.63803 3.32698C4.01641 3.13419 4.40963 3.06287 4.80497 3.03057C5.17955 2.99997 5.63431 2.99998 6.16146 3ZM4.85328 5.03527L10.1416 9.63268C10.5005 9.91977 10.7311 10.1032 10.919 10.2321C11.0992 10.3558 11.1837 10.3888 11.2334 10.4026C11.4078 10.4508 11.5922 10.4508 11.7666 10.4026C11.8163 10.3888 11.9008 10.3558 12.081 10.2321C12.2692 10.103 12.5001 9.91924 12.8599 9.63143L18.1841 5.04C18.1405 5.03412 18.0902 5.02867 18.0322 5.02393C17.7488 5.00078 17.3766 5 16.8 5H6.2C5.62345 5 5.25117 5.00078 4.96784 5.02393C4.92569 5.02737 4.88765 5.03119 4.85328 5.03527ZM20.2929 15.2929C20.4547 15.1311 20.4547 14.8689 20.2929 14.7071C20.1311 14.5453 19.8689 14.5453 19.7071 14.7071L15.5497 18.8646C15.4814 18.9328 15.4478 18.9666 15.4242 18.9919C15.4236 18.9925 15.4231 18.9931 15.4225 18.9937C15.4223 18.9945 15.4221 18.9953 15.4219 18.9961C15.414 19.0298 15.4045 19.0764 15.3856 19.1712L15.2748 19.7252L15.8289 19.6144C15.9236 19.5955 15.9702 19.586 16.0039 19.5781C16.0047 19.5779 16.0055 19.5777 16.0063 19.5775C16.0069 19.5769 16.0075 19.5764 16.0081 19.5758C16.0334 19.5522 16.0672 19.5186 16.1354 19.4503L20.2929 15.2929ZM18.2929 13.2929C19.2357 12.3501 20.7643 12.3501 21.7071 13.2929C22.6499 14.2357 22.6499 15.7643 21.7071 16.7071L17.5497 20.8646C17.5411 20.8731 17.5323 20.882 17.5232 20.8911C17.4241 20.9905 17.2993 21.1159 17.1511 21.2192C17.0223 21.309 16.8834 21.3834 16.7373 21.4407C16.569 21.5067 16.3955 21.541 16.2578 21.5683C16.2452 21.5708 16.233 21.5732 16.2211 21.5756L14.1961 21.9806C13.8683 22.0462 13.5293 21.9435 13.2929 21.7071C13.0565 21.4707 12.9538 21.1317 13.0194 20.8039L13.4244 18.7789C13.4268 18.767 13.4292 18.7548 13.4317 18.7422C13.459 18.6045 13.4933 18.431 13.5593 18.2627C13.6166 18.1166 13.691 17.9777 13.7808 17.8489C13.8842 17.7007 14.0095 17.5759 14.109 17.4768C14.118 17.4677 14.1269 17.4589 14.1354 17.4503L18.2929 13.2929Z" fill="#C57F19" fill-opacity="0.4"/>
<path d="M15.2414 18.8214L15.2414 18.8214C15.2687 18.7921 15.3059 18.7548 15.3729 18.6878L19.5303 14.5303C19.7897 14.2709 20.2103 14.2709 20.4697 14.5303C20.7291 14.7897 20.7291 15.2103 20.4697 15.4697L16.3122 19.6271C16.2452 19.6941 16.2079 19.7313 16.1786 19.7586M15.2414 18.8214L16.0081 19.5758M15.2414 18.8214L15.2392 18.8237C15.21 18.8552 15.1894 18.8937 15.1794 18.9354L15.1787 18.9386L15.1787 18.9386C15.1694 18.9775 15.159 19.0292 15.1404 19.1221L15.0296 19.6762C15.0132 19.7582 15.0389 19.8429 15.098 19.902C15.1571 19.9611 15.2418 19.9868 15.3238 19.9704L15.8779 19.8596L15.8289 19.6144M15.2414 18.8214L15.5403 19.6721M16.1786 19.7586L16.0081 19.5758M16.1786 19.7586L16.1787 19.7585L16.0081 19.5758M16.1786 19.7586L16.1763 19.7608C16.1447 19.7901 16.1062 19.8107 16.0643 19.8207L16.0614 19.8213L16.0614 19.8214C16.0225 19.8306 15.9708 19.841 15.8779 19.8596L15.8289 19.6144M16.0081 19.5758L16.0063 19.5775L16.0039 19.5781C15.9702 19.586 15.9236 19.5955 15.8289 19.6144M15.8289 19.6144L15.5403 19.6721M15.5403 19.6721L15.2748 19.7252M15.5403 19.6721L15.5199 19.7743L15.2748 19.7252M15.2748 19.7252L15.3279 19.4597L15.2257 19.4801L15.2748 19.7252ZM6.16145 3.25H6.16146H16.8385C17.3692 3.24998 17.8125 3.25015 18.1747 3.27974C18.5545 3.31077 18.9112 3.37787 19.2485 3.54973C19.725 3.79255 20.1195 4.16857 20.3848 4.63069L20.3848 4.6307L20.3869 4.63417C20.393 4.64437 20.3988 4.65473 20.4044 4.66525L20.4044 4.66527L20.4063 4.66874C20.4214 4.69605 20.4361 4.72365 20.4503 4.75153C20.6221 5.08883 20.6892 5.44553 20.7203 5.82533C20.7499 6.18751 20.75 6.63079 20.75 7.16143V9.5C20.75 9.91422 20.4142 10.25 20 10.25C19.5858 10.25 19.25 9.91422 19.25 9.5V7.2L19.2499 6.97713C19.2498 6.87941 19.1928 6.79072 19.1039 6.75007C19.015 6.70942 18.9106 6.72428 18.8366 6.78809L13.9888 10.9688L13.9888 10.9688C13.9819 10.9748 13.9748 10.9807 13.9675 10.9864L13.9415 11.0073L14.0977 11.2025L13.9415 11.0073C13.6047 11.2768 13.3205 11.5039 13.0714 11.6749C12.8079 11.8557 12.5422 12.0037 12.2332 12.0892C11.7534 12.2219 11.2466 12.2219 10.7668 12.0892C10.4578 12.0037 10.1921 11.8557 9.92861 11.6749C9.67946 11.5039 9.39534 11.2768 9.0585 11.0073L8.90232 11.2025L9.05849 11.0073L9.03246 10.9864C9.02447 10.98 9.01662 10.9735 9.00892 10.9668L9.00891 10.9668L4.16416 6.75503C4.09029 6.69081 3.98574 6.67561 3.89664 6.71613C3.80754 6.75666 3.75029 6.84545 3.75014 6.94333L3.75 7.2V13.8C3.75 14.3723 3.75058 14.7566 3.77476 15.0525C3.7982 15.3394 3.84003 15.4768 3.88624 15.5675C4.00608 15.8027 4.19731 15.9939 4.43251 16.1138C4.52321 16.16 4.66059 16.2018 4.94748 16.2252C5.2434 16.2494 5.62775 16.25 6.2 16.25H10.5C10.9142 16.25 11.25 16.5858 11.25 17C11.25 17.4142 10.9142 17.75 10.5 17.75H6.16148C5.63081 17.75 5.18752 17.7499 4.82533 17.7203C4.44553 17.6892 4.08884 17.6221 3.75153 17.4503C3.23408 17.1866 2.81339 16.7659 2.54973 16.2485C2.37787 15.9112 2.31077 15.5545 2.27974 15.1747C2.25015 14.8125 2.24998 14.3692 2.25 13.8386V7.16146V7.16145C2.24998 6.6308 2.25015 6.18751 2.27974 5.82533C2.31077 5.44553 2.37787 5.08884 2.54973 4.75153C2.57098 4.70982 2.59325 4.66875 2.61651 4.62833L2.61654 4.62835L2.61842 4.62495C2.624 4.61491 2.62983 4.60495 2.63591 4.59509L2.63594 4.59511L2.63792 4.59178C2.90281 4.14746 3.28842 3.7857 3.75153 3.54973C4.08884 3.37787 4.44553 3.31077 4.82533 3.27974C5.18751 3.25015 5.6308 3.24998 6.16145 3.25ZM4.82378 4.78702C4.72556 4.7987 4.64345 4.86718 4.61435 4.96171C4.58525 5.05625 4.61461 5.15905 4.68926 5.22395L9.9776 9.82135L9.97747 9.82151L9.98546 9.8279C10.3416 10.1128 10.5804 10.3029 10.7775 10.4382C10.9694 10.57 11.0799 10.6195 11.1667 10.6435C11.3848 10.7038 11.6152 10.7038 11.8333 10.6435C11.9201 10.6195 12.0306 10.57 12.2225 10.4382C12.4199 10.3027 12.6591 10.1122 13.0161 9.82665L13.0162 9.82679L13.0232 9.82075L18.3473 5.22933C18.4218 5.16508 18.4517 5.06312 18.4237 4.96881C18.3957 4.87451 18.315 4.8054 18.2175 4.79225C18.169 4.78571 18.1143 4.77981 18.0525 4.77476C17.7566 4.75058 17.3723 4.75 16.8 4.75H6.2C5.62775 4.75 5.2434 4.75058 4.94748 4.77476C4.90257 4.77843 4.86147 4.78254 4.82378 4.78702ZM13.6696 18.8279L13.6696 18.8279L13.6769 18.7908C13.7046 18.6508 13.7354 18.4985 13.792 18.354C13.8422 18.2261 13.9072 18.1046 13.9858 17.9919C14.0746 17.8646 14.1843 17.7546 14.2854 17.6539L14.3122 17.6271L18.4697 13.4697C19.3148 12.6245 20.6852 12.6245 21.5303 13.4697C22.3755 14.3148 22.3755 15.6852 21.5303 16.5303L17.3729 20.6878L17.3461 20.7146C17.2454 20.8157 17.1354 20.9254 17.0081 21.0142C16.8954 21.0928 16.7739 21.1578 16.646 21.208C16.5015 21.2646 16.3492 21.2954 16.2092 21.3231L16.1721 21.3304L14.1471 21.7354C13.9012 21.7846 13.647 21.7076 13.4697 21.5303C13.2924 21.353 13.2154 21.0988 13.2646 20.8529L13.6696 18.8279Z" stroke="url(#paint1_linear_1275_848)" stroke-width="0.5" stroke-linejoin="round"/>
<path d="M15.2414 18.8214L15.2414 18.8214C15.2687 18.7921 15.3059 18.7548 15.3729 18.6878L19.5303 14.5303C19.7897 14.2709 20.2103 14.2709 20.4697 14.5303C20.7291 14.7897 20.7291 15.2103 20.4697 15.4697L16.3122 19.6271C16.2452 19.6941 16.2079 19.7313 16.1786 19.7586M15.2414 18.8214L16.0081 19.5758M15.2414 18.8214L15.2392 18.8237C15.21 18.8552 15.1894 18.8937 15.1794 18.9354L15.1787 18.9386L15.1787 18.9386C15.1694 18.9775 15.159 19.0292 15.1404 19.1221L15.0296 19.6762C15.0132 19.7582 15.0389 19.8429 15.098 19.902C15.1571 19.9611 15.2418 19.9868 15.3238 19.9704L15.8779 19.8596L15.8289 19.6144M15.2414 18.8214L15.5403 19.6721M16.1786 19.7586L16.0081 19.5758M16.1786 19.7586L16.1787 19.7585L16.0081 19.5758M16.1786 19.7586L16.1763 19.7608C16.1447 19.7901 16.1062 19.8107 16.0643 19.8207L16.0614 19.8213L16.0614 19.8214C16.0225 19.8306 15.9708 19.841 15.8779 19.8596L15.8289 19.6144M16.0081 19.5758L16.0063 19.5775L16.0039 19.5781C15.9702 19.586 15.9236 19.5955 15.8289 19.6144M15.8289 19.6144L15.5403 19.6721M15.5403 19.6721L15.2748 19.7252M15.5403 19.6721L15.5199 19.7743L15.2748 19.7252M15.2748 19.7252L15.3279 19.4597L15.2257 19.4801L15.2748 19.7252ZM6.16145 3.25H6.16146H16.8385C17.3692 3.24998 17.8125 3.25015 18.1747 3.27974C18.5545 3.31077 18.9112 3.37787 19.2485 3.54973C19.725 3.79255 20.1195 4.16857 20.3848 4.63069L20.3848 4.6307L20.3869 4.63417C20.393 4.64437 20.3988 4.65473 20.4044 4.66525L20.4044 4.66527L20.4063 4.66874C20.4214 4.69605 20.4361 4.72365 20.4503 4.75153C20.6221 5.08883 20.6892 5.44553 20.7203 5.82533C20.7499 6.18751 20.75 6.63079 20.75 7.16143V9.5C20.75 9.91422 20.4142 10.25 20 10.25C19.5858 10.25 19.25 9.91422 19.25 9.5V7.2L19.2499 6.97713C19.2498 6.87941 19.1928 6.79072 19.1039 6.75007C19.015 6.70942 18.9106 6.72428 18.8366 6.78809L13.9888 10.9688L13.9888 10.9688C13.9819 10.9748 13.9748 10.9807 13.9675 10.9864L13.9415 11.0073L14.0977 11.2025L13.9415 11.0073C13.6047 11.2768 13.3205 11.5039 13.0714 11.6749C12.8079 11.8557 12.5422 12.0037 12.2332 12.0892C11.7534 12.2219 11.2466 12.2219 10.7668 12.0892C10.4578 12.0037 10.1921 11.8557 9.92861 11.6749C9.67946 11.5039 9.39534 11.2768 9.0585 11.0073L8.90232 11.2025L9.05849 11.0073L9.03246 10.9864C9.02447 10.98 9.01662 10.9735 9.00892 10.9668L9.00891 10.9668L4.16416 6.75503C4.09029 6.69081 3.98574 6.67561 3.89664 6.71613C3.80754 6.75666 3.75029 6.84545 3.75014 6.94333L3.75 7.2V13.8C3.75 14.3723 3.75058 14.7566 3.77476 15.0525C3.7982 15.3394 3.84003 15.4768 3.88624 15.5675C4.00608 15.8027 4.19731 15.9939 4.43251 16.1138C4.52321 16.16 4.66059 16.2018 4.94748 16.2252C5.2434 16.2494 5.62775 16.25 6.2 16.25H10.5C10.9142 16.25 11.25 16.5858 11.25 17C11.25 17.4142 10.9142 17.75 10.5 17.75H6.16148C5.63081 17.75 5.18752 17.7499 4.82533 17.7203C4.44553 17.6892 4.08884 17.6221 3.75153 17.4503C3.23408 17.1866 2.81339 16.7659 2.54973 16.2485C2.37787 15.9112 2.31077 15.5545 2.27974 15.1747C2.25015 14.8125 2.24998 14.3692 2.25 13.8386V7.16146V7.16145C2.24998 6.6308 2.25015 6.18751 2.27974 5.82533C2.31077 5.44553 2.37787 5.08884 2.54973 4.75153C2.57098 4.70982 2.59325 4.66875 2.61651 4.62833L2.61654 4.62835L2.61842 4.62495C2.624 4.61491 2.62983 4.60495 2.63591 4.59509L2.63594 4.59511L2.63792 4.59178C2.90281 4.14746 3.28842 3.7857 3.75153 3.54973C4.08884 3.37787 4.44553 3.31077 4.82533 3.27974C5.18751 3.25015 5.6308 3.24998 6.16145 3.25ZM4.82378 4.78702C4.72556 4.7987 4.64345 4.86718 4.61435 4.96171C4.58525 5.05625 4.61461 5.15905 4.68926 5.22395L9.9776 9.82135L9.97747 9.82151L9.98546 9.8279C10.3416 10.1128 10.5804 10.3029 10.7775 10.4382C10.9694 10.57 11.0799 10.6195 11.1667 10.6435C11.3848 10.7038 11.6152 10.7038 11.8333 10.6435C11.9201 10.6195 12.0306 10.57 12.2225 10.4382C12.4199 10.3027 12.6591 10.1122 13.0161 9.82665L13.0162 9.82679L13.0232 9.82075L18.3473 5.22933C18.4218 5.16508 18.4517 5.06312 18.4237 4.96881C18.3957 4.87451 18.315 4.8054 18.2175 4.79225C18.169 4.78571 18.1143 4.77981 18.0525 4.77476C17.7566 4.75058 17.3723 4.75 16.8 4.75H6.2C5.62775 4.75 5.2434 4.75058 4.94748 4.77476C4.90257 4.77843 4.86147 4.78254 4.82378 4.78702ZM13.6696 18.8279L13.6696 18.8279L13.6769 18.7908C13.7046 18.6508 13.7354 18.4985 13.792 18.354C13.8422 18.2261 13.9072 18.1046 13.9858 17.9919C14.0746 17.8646 14.1843 17.7546 14.2854 17.6539L14.3122 17.6271L18.4697 13.4697C19.3148 12.6245 20.6852 12.6245 21.5303 13.4697C22.3755 14.3148 22.3755 15.6852 21.5303 16.5303L17.3729 20.6878L17.3461 20.7146C17.2454 20.8157 17.1354 20.9254 17.0081 21.0142C16.8954 21.0928 16.7739 21.1578 16.646 21.208C16.5015 21.2646 16.3492 21.2954 16.2092 21.3231L16.1721 21.3304L14.1471 21.7354C13.9012 21.7846 13.647 21.7076 13.4697 21.5303C13.2924 21.353 13.2154 21.0988 13.2646 20.8529L13.6696 18.8279Z" stroke="#C57F19" stroke-opacity="0.4" stroke-width="0.5" stroke-linejoin="round"/>
</g>
</g>
<defs>
<filter id="filter0_dd_1275_848" x="-18" y="-15" width="60.4141" height="59" filterUnits="userSpaceOnUse" color-interpolation-filters="sRGB">
<feFlood flood-opacity="0" result="BackgroundImageFix"/>
<feColorMatrix in="SourceAlpha" type="matrix" values="0 0 0 0 0 0 0 0 0 0 0 0 0 0 0 0 0 0 127 0" result="hardAlpha"/>
<feOffset dy="2"/>
<feGaussianBlur stdDeviation="1"/>
<feColorMatrix type="matrix" values="0 0 0 0 0 0 0 0 0 0 0 0 0 0 0 0 0 0 0.3 0"/>
<feBlend mode="normal" in2="BackgroundImageFix" result="effect1_dropShadow_1275_848"/>
<feColorMatrix in="SourceAlpha" type="matrix" values="0 0 0 0 0 0 0 0 0 0 0 0 0 0 0 0 0 0 127 0" result="hardAlpha"/>
<feOffset dy="2"/>
<feGaussianBlur stdDeviation="10"/>
<feColorMatrix type="matrix" values="0 0 0 0 0 0 0 0 0 0 0 0 0 0 0 0 0 0 0.2 0"/>
<feBlend mode="normal" in2="effect1_dropShadow_1275_848" result="effect2_dropShadow_1275_848"/>
<feBlend mode="normal" in="SourceGraphic" in2="effect2_dropShadow_1275_848" result="shape"/>
</filter>
<linearGradient id="paint0_linear_1275_848" x1="12.1202" y1="0.324412" x2="12.1202" y2="27.6861" gradientUnits="userSpaceOnUse">
<stop stop-color="#ECECEC"/>
<stop offset="0.471084" stop-color="#BBBBBB"/>
<stop offset="0.474255" stop-color="#3E3E3E"/>
<stop offset="1" stop-color="#969696"/>
</linearGradient>
<linearGradient id="paint1_linear_1275_848" x1="12.1202" y1="0.324412" x2="12.1202" y2="27.6861" gradientUnits="userSpaceOnUse">
<stop offset="0.166667" stop-color="white"/>
<stop offset="0.494792" stop-color="#D2D2D2"/>
<stop offset="0.734375"/>
<stop offset="0.927083" stop-color="#E4E4E4"/>
</linearGradient>
<clipPath id="clip0_1275_848">
<rect width="24" height="24" fill="white"/>
</clipPath>
</defs>
</svg>
